<svg width="20" height="25" viewBox="0 0 20 25" fill="none" xmlns="http://www.w3.org/2000/svg">
<path d="M15.7217 15.9843C15.4231 16.0723 14.9849 16.0823 14.5148 16.0142C14.0105 15.9409 13.496 15.7868 12.9905 15.5596C13.8921 15.4285 14.5916 15.4688 15.1898 15.6809C15.3317 15.7311 15.5645 15.8654 15.7217 15.9843ZM10.6911 15.1572C10.6543 15.1671 10.6183 15.1766 10.5824 15.1865C10.3397 15.2526 10.1036 15.3169 9.8762 15.3744L9.56945 15.4522C8.95236 15.6084 8.32149 15.7679 7.69853 15.9578C7.93536 15.3866 8.15535 14.8093 8.37075 14.2448C8.53025 13.827 8.69307 13.4001 8.86151 12.9787C8.947 13.1199 9.03607 13.261 9.12896 13.4026C9.55158 14.0465 10.0829 14.6419 10.6911 15.1572ZM9.12156 8.71757C9.16163 9.42219 9.00953 10.1 8.78648 10.7503C8.51187 9.94613 8.38376 9.05827 8.72727 8.3414C8.81531 8.15765 8.88754 8.0594 8.93424 8.0081C9.00646 8.11988 9.10166 8.36947 9.12156 8.71757ZM5.90035 17.6436C5.74595 17.9198 5.58849 18.1783 5.42695 18.4223C5.03725 19.0095 4.4 19.6383 4.07257 19.6383C4.04042 19.6383 4.00137 19.6332 3.94446 19.573C3.90771 19.5345 3.90184 19.5069 3.90363 19.4694C3.9146 19.2535 4.20069 18.8689 4.61514 18.5124C4.99131 18.1888 5.41648 17.9014 5.90035 17.6436ZM16.7645 16.0147C16.7144 15.2955 15.5037 14.8341 15.4917 14.8297C15.0237 14.6639 14.5153 14.5832 13.9375 14.5832C13.3189 14.5832 12.6521 14.6728 11.7956 14.8729C11.0336 14.3326 10.3751 13.6563 9.88335 12.9075C9.66617 12.5768 9.47094 12.2466 9.30072 11.924C9.71619 10.9305 10.0903 9.86217 10.0224 8.66576C9.96757 7.70645 9.53499 7.06205 8.94674 7.06205C8.54326 7.06205 8.19567 7.3609 7.91316 7.95119C7.40913 9.00315 7.54158 10.3491 8.30669 11.9551C8.03107 12.6023 7.7751 13.2732 7.52729 13.923C7.219 14.7307 6.90127 15.564 6.54322 16.3566C5.53898 16.754 4.71416 17.2358 4.02663 17.8274C3.5762 18.2143 3.03337 18.8056 3.00224 19.4229C2.98718 19.7136 3.08671 19.9803 3.28935 20.1939C3.50448 20.4208 3.775 20.5402 4.07232 20.5405C5.05435 20.5405 5.99937 19.1912 6.17853 18.9207C6.53939 18.3769 6.87703 17.7702 7.20803 17.0705C8.04153 16.7693 8.9299 16.5445 9.79071 16.327L10.099 16.2487C10.3307 16.1897 10.5716 16.1247 10.8187 16.057C11.0803 15.9863 11.3493 15.9131 11.6226 15.8434C12.5066 16.4056 13.4572 16.7724 14.3844 16.9069C15.1653 17.0204 15.859 16.9546 16.3283 16.7098C16.7509 16.4899 16.7744 16.1504 16.7645 16.0147ZM18.6663 22.1988C18.6663 23.5159 17.5053 23.5971 17.271 23.5999H2.29379C0.981521 23.5999 0.902407 22.431 0.899855 22.1988V2.30119C0.899855 0.982797 2.06283 0.902918 2.29379 0.90011H12.4114L12.4168 0.90547V4.85376C12.4168 5.64617 12.8958 7.14627 14.7101 7.14627H18.6326L18.6663 7.17996V22.1988ZM17.7363 6.24616H14.7103C13.3983 6.24616 13.3189 5.0837 13.3171 4.85376V1.8089L17.7363 6.24616ZM19.5661 22.1988V6.80838L13.3171 0.53338V0.504286H13.2873L12.7855 0H2.29379C1.50035 0 0 0.481063 0 2.30119V22.1991C0 22.9948 0.479532 24.5 2.29379 24.5H17.2726C18.0658 24.4997 19.5661 24.0189 19.5661 22.1988Z" fill="#CA2D2B"/>
</svg>
