<svg width="120" height="37" viewBox="0 0 120 37" fill="none" xmlns="http://www.w3.org/2000/svg">
<path d="M115.959 36.0263H4.28926C1.95868 36.0263 0 34.1266 0 31.8322V4.76809C0 2.47368 1.95868 0.5 4.28926 0.5H115.959C118.264 0.5 120 2.47368 120 4.76809V31.8322C120 34.1513 118.215 36.0263 115.909 36.0263H115.959Z" fill="#A6A6A6"/>
<path d="M119.38 31.8323C119.38 33.7073 117.843 35.2122 115.959 35.2122H4.28925C2.40496 35.2122 0.867767 33.6826 0.867767 31.8323V4.76813C0.867767 2.89313 2.40496 1.36353 4.28925 1.36353H115.959C117.843 1.36353 119.38 2.89313 119.38 4.76813V31.8323Z" fill="black"/>
<path d="M26.876 18.1153C26.8513 15.2534 29.2314 13.8719 29.3306 13.7978C27.9918 11.8488 25.9091 11.5774 25.1653 11.5528C23.405 11.3801 21.719 12.589 20.8265 12.589C19.9091 12.589 18.5455 11.5528 17.0579 11.6021C15.1488 11.6268 13.3637 12.737 12.3967 14.4393C10.3884 17.9179 11.876 23.0248 13.8099 25.8373C14.7769 27.2189 15.9174 28.7485 17.3802 28.6992C18.8182 28.6498 19.3637 27.7863 21.124 27.7863C22.8595 27.7863 23.3554 28.6992 24.8678 28.6745C26.4298 28.6498 27.3967 27.2929 28.3389 25.9113C29.4546 24.3324 29.9008 22.7781 29.9256 22.7041C29.9008 22.6547 26.9256 21.5199 26.876 18.1153Z" fill="white"/>
<path d="M24.0496 9.70233C24.8182 8.74016 25.3637 7.40792 25.2149 6.07568C24.0992 6.12503 22.686 6.84049 21.8678 7.80266C21.1488 8.64147 20.5042 9.99838 20.6777 11.2813C21.9174 11.4046 23.2314 10.6645 24.0496 9.70233Z" fill="white"/>
<path d="M47.8264 28.4773H45.7934L44.6777 25.0234H40.8347L39.7686 28.4773H37.8099L41.6281 16.6846H43.9835L47.8264 28.4773ZM44.3554 23.5678L43.3636 20.4839C43.2644 20.1632 43.0661 19.4231 42.7686 18.2635H42.7438C42.6198 18.7569 42.4463 19.4971 42.1735 20.4839L41.1818 23.5678H44.3554Z" fill="white"/>
<path d="M57.6198 24.1351C57.6198 25.5907 57.2231 26.7255 56.4545 27.5643C55.7603 28.3045 54.8678 28.6745 53.8264 28.6745C52.7107 28.6745 51.8926 28.2798 51.3967 27.4657H51.3719V31.9311H49.4628V22.7782C49.4628 21.8653 49.438 20.9278 49.3884 19.9903H51.0496L51.1488 21.3472H51.1735C51.8182 20.3357 52.7603 19.8176 54.0496 19.8176C55.0661 19.8176 55.9091 20.2124 56.5785 21.0018C57.2975 21.7913 57.6198 22.8275 57.6198 24.1351ZM55.6859 24.2091C55.6859 23.3703 55.4876 22.7041 55.1157 22.1614C54.6942 21.5939 54.1488 21.3226 53.4545 21.3226C52.9835 21.3226 52.562 21.4706 52.1901 21.7913C51.8182 22.112 51.5702 22.5068 51.4463 23.0002C51.3967 23.2222 51.3471 23.4196 51.3471 23.5676V24.9739C51.3471 25.5907 51.5455 26.1087 51.9174 26.5282C52.2893 26.9476 52.7851 27.1696 53.405 27.1696C54.124 27.1696 54.6694 26.8982 55.0661 26.3555C55.4876 25.8127 55.6859 25.0972 55.6859 24.2091Z" fill="white"/>
<path d="M67.4381 24.1351C67.4381 25.5907 67.0414 26.7255 66.248 27.5643C65.5538 28.3045 64.6612 28.6745 63.6199 28.6745C62.5042 28.6745 61.686 28.2798 61.1901 27.4657H61.1653V31.9311H59.2562V22.7782C59.2562 21.8653 59.2314 20.9278 59.1819 19.9903H60.843L60.9422 21.3472H60.967C61.6116 20.3357 62.5538 19.8176 63.843 19.8176C64.8595 19.8176 65.7025 20.2124 66.372 21.0018C67.1158 21.7913 67.4381 22.8275 67.4381 24.1351ZM65.5042 24.2091C65.5042 23.3703 65.3058 22.7041 64.9339 22.1614C64.5124 21.5939 63.967 21.3226 63.2728 21.3226C62.8017 21.3226 62.3802 21.4706 62.0083 21.7913C61.6364 22.112 61.3885 22.5068 61.2645 23.0002C61.2149 23.2222 61.1653 23.4196 61.1653 23.5676V24.9739C61.1653 25.5907 61.3637 26.1087 61.7356 26.5282C62.1075 26.9476 62.6033 27.1696 63.2232 27.1696C63.9422 27.1696 64.4877 26.8982 64.8843 26.3555C65.3058 25.8127 65.5042 25.0972 65.5042 24.2091Z" fill="white"/>
<path d="M78.4215 25.1713C78.4215 26.1828 78.0744 26.9969 77.3802 27.6137C76.6116 28.3045 75.5455 28.6499 74.1571 28.6499C72.8926 28.6499 71.8513 28.4032 71.0827 27.9098L71.529 26.3308C72.3719 26.8242 73.2645 27.0956 74.281 27.0956C75 27.0956 75.5455 26.9229 75.9422 26.6022C76.3389 26.2815 76.5372 25.8621 76.5372 25.3193C76.5372 24.8505 76.3637 24.4311 76.0413 24.1104C75.719 23.7897 75.1736 23.469 74.405 23.1976C72.3223 22.4328 71.3058 21.2979 71.3058 19.8177C71.3058 18.8555 71.6777 18.066 72.3967 17.4246C73.1157 16.8078 74.0827 16.4871 75.2975 16.4871C76.3637 16.4871 77.281 16.6844 77.9752 17.0545L77.5042 18.5841C76.8347 18.214 76.0909 18.0413 75.248 18.0413C74.5785 18.0413 74.0579 18.214 73.686 18.5348C73.3637 18.8308 73.2149 19.1762 73.2149 19.5956C73.2149 20.0644 73.3885 20.4344 73.7604 20.7552C74.0827 21.0265 74.6529 21.3473 75.4711 21.668C76.4876 22.0874 77.2314 22.5561 77.7273 23.0989C78.1984 23.691 78.4215 24.3571 78.4215 25.1713Z" fill="white"/>
<path d="M84.6941 21.3966H82.6115V25.5167C82.6115 26.5775 82.9834 27.0956 83.7272 27.0956C84.0743 27.0956 84.347 27.071 84.5702 26.9969L84.6197 28.4279C84.2478 28.5759 83.752 28.6252 83.1321 28.6252C82.3883 28.6252 81.7933 28.4032 81.3718 27.9344C80.9503 27.4904 80.7272 26.7256 80.7272 25.64V21.3966H79.4875V19.9904H80.7272V18.4361L82.5867 17.8687V19.9904H84.6693V21.3966H84.6941Z" fill="white"/>
<path d="M94.1405 24.1597C94.1405 25.4673 93.7686 26.5282 93.0248 27.367C92.2314 28.2305 91.1901 28.6499 89.9008 28.6499C88.6364 28.6499 87.6446 28.2305 86.9008 27.4163C86.157 26.5775 85.7851 25.5413 85.7851 24.2831C85.7851 22.9755 86.157 21.89 86.9256 21.0512C87.6942 20.2124 88.7355 19.793 90.0248 19.793C91.2893 19.793 92.281 20.2124 93.0496 21.0265C93.7686 21.8653 94.1405 22.9015 94.1405 24.1597ZM92.1818 24.2338C92.1818 23.4443 92.0083 22.7782 91.6612 22.2107C91.2645 21.5446 90.6942 21.1992 89.9504 21.1992C89.1818 21.1992 88.6116 21.5446 88.2149 22.2107C87.8678 22.7782 87.6942 23.4443 87.6942 24.2584C87.6942 25.0479 87.8678 25.714 88.2149 26.2815C88.6364 26.9476 89.2066 27.293 89.9256 27.293C90.6446 27.293 91.2149 26.9476 91.6364 26.2568C92.0083 25.6893 92.1818 25.0232 92.1818 24.2338Z" fill="white"/>
<path d="M100.314 21.6433C100.116 21.6186 99.9173 21.5939 99.719 21.5939C99.0495 21.5939 98.5289 21.8406 98.1818 22.3587C97.8594 22.8028 97.7107 23.3702 97.7107 24.0364V28.5018H95.8264L95.8512 22.6795C95.8512 21.6926 95.8264 20.8045 95.7768 20.015H97.438L97.5123 21.6433H97.5619C97.7603 21.0758 98.0826 20.6318 98.5041 20.2864C98.9256 19.9903 99.3718 19.8423 99.8677 19.8423C100.041 19.8423 100.19 19.8423 100.339 19.867V21.6433H100.314Z" fill="white"/>
<path d="M108.793 23.839C108.793 24.1844 108.769 24.4558 108.719 24.7025H103.016C103.041 25.5413 103.314 26.1828 103.835 26.6268C104.306 27.0216 104.926 27.219 105.694 27.219C106.537 27.219 107.306 27.0956 108 26.8242L108.297 28.1318C107.479 28.4772 106.537 28.6499 105.446 28.6499C104.132 28.6499 103.091 28.2551 102.322 27.4903C101.578 26.7255 101.182 25.6647 101.182 24.3571C101.182 23.0742 101.529 22.0134 102.248 21.1499C102.992 20.237 103.983 19.793 105.223 19.793C106.463 19.793 107.38 20.237 108.025 21.1499C108.545 21.89 108.793 22.7782 108.793 23.839ZM106.983 23.3456C106.983 22.7782 106.884 22.3094 106.612 21.89C106.289 21.3719 105.769 21.1005 105.099 21.1005C104.479 21.1005 103.983 21.3472 103.587 21.8653C103.264 22.2847 103.091 22.7535 103.016 23.3456H106.983Z" fill="white"/>
<path d="M43.7355 9.45581C43.7355 10.492 43.4132 11.2815 42.7934 11.7996C42.2231 12.293 41.3801 12.5397 40.314 12.5397C39.7934 12.5397 39.3223 12.515 38.9504 12.4657V6.76667C39.4462 6.69265 39.9917 6.64331 40.5619 6.64331C41.5785 6.64331 42.3471 6.86535 42.8677 7.30943C43.438 7.80285 43.7355 8.51831 43.7355 9.45581ZM42.7438 9.48048C42.7438 8.81436 42.5702 8.29627 42.1983 7.92621C41.8264 7.55614 41.3057 7.38344 40.6115 7.38344C40.314 7.38344 40.0661 7.40811 39.8677 7.43278V11.7502C39.9917 11.7749 40.19 11.7749 40.4876 11.7749C41.2066 11.7749 41.752 11.5775 42.1487 11.1828C42.5454 10.8127 42.7438 10.2206 42.7438 9.48048Z" fill="white"/>
<path d="M48.9421 10.3685C48.9421 11.01 48.7685 11.5281 48.3966 11.9475C47.9999 12.3669 47.5041 12.5889 46.8594 12.5889C46.2396 12.5889 45.7437 12.3916 45.3966 11.9722C45.0247 11.5774 44.8512 11.0593 44.8512 10.4425C44.8512 9.8011 45.0495 9.25834 45.4214 8.8636C45.7933 8.44419 46.314 8.24683 46.9338 8.24683C47.5536 8.24683 48.0495 8.44419 48.4214 8.8636C48.7685 9.23367 48.9421 9.72709 48.9421 10.3685ZM47.9751 10.3932C47.9751 9.99847 47.9008 9.67775 47.7272 9.40636C47.5289 9.06097 47.2561 8.91294 46.8842 8.91294C46.5123 8.91294 46.2148 9.08564 46.0412 9.40636C45.8677 9.67775 45.7933 10.0231 45.7933 10.4179C45.7933 10.8126 45.8677 11.1333 46.0412 11.4047C46.2396 11.7254 46.5123 11.8981 46.8842 11.8981C47.2313 11.8981 47.5289 11.7254 47.7272 11.38C47.9008 11.1087 47.9751 10.7879 47.9751 10.3932Z" fill="white"/>
<path d="M55.9339 8.29616L54.6198 12.4656H53.7769L53.2314 10.6646C53.0827 10.2205 52.9835 9.75175 52.8843 9.30767H52.8595C52.7851 9.77642 52.6612 10.2205 52.5124 10.6646L51.9422 12.4656H51.0744L49.8347 8.29616H50.8017L51.2727 10.2698C51.3967 10.7386 51.4711 11.1827 51.5455 11.6021H51.5703C51.6446 11.2567 51.7438 10.8126 51.9174 10.2698L52.5124 8.27148H53.281L53.8512 10.2205C54 10.6892 54.0992 11.158 54.1984 11.6021H54.2231C54.2975 11.1827 54.3719 10.7139 54.5207 10.2205L55.0413 8.27148H55.9339V8.29616Z" fill="white"/>
<path d="M60.7686 12.4902H59.8264V10.0972C59.8264 9.35702 59.5537 8.98696 58.9834 8.98696C58.7107 8.98696 58.4876 9.08564 58.314 9.28301C58.1405 9.48038 58.0661 9.72709 58.0661 9.99847V12.4656H57.1239V9.50505C57.1239 9.13498 57.1239 8.74025 57.0992 8.32084H57.9173L57.9669 8.96229H57.9917C58.0909 8.76492 58.2644 8.59222 58.4628 8.46887C58.7107 8.32084 59.0082 8.24683 59.3058 8.24683C59.7025 8.24683 60.0248 8.37018 60.2727 8.61689C60.595 8.93762 60.7438 9.38169 60.7438 9.99847V12.4902H60.7686Z" fill="white"/>
<path d="M63.347 12.4902H62.4049V6.39648H63.347V12.4902Z" fill="white"/>
<path d="M68.8264 10.3685C68.8264 11.01 68.6529 11.5281 68.281 11.9475C67.8843 12.3669 67.3884 12.5889 66.7438 12.5889C66.1239 12.5889 65.6281 12.3916 65.281 11.9722C64.9091 11.5774 64.7355 11.0593 64.7355 10.4425C64.7355 9.8011 64.9338 9.25834 65.3057 8.8636C65.6777 8.46887 66.1983 8.24683 66.8181 8.24683C67.438 8.24683 67.9339 8.44419 68.3058 8.8636C68.6529 9.23367 68.8264 9.72709 68.8264 10.3685ZM67.8595 10.3932C67.8595 9.99847 67.7851 9.67775 67.6115 9.40636C67.4132 9.06097 67.1405 8.91294 66.7686 8.91294C66.3967 8.91294 66.0991 9.08564 65.9256 9.40636C65.752 9.67775 65.6777 10.0231 65.6777 10.4179C65.6777 10.8126 65.752 11.1333 65.9256 11.4047C66.1239 11.7254 66.3967 11.8981 66.7686 11.8981C67.1157 11.8981 67.4132 11.7254 67.6115 11.38C67.7851 11.1087 67.8595 10.7879 67.8595 10.3932Z" fill="white"/>
<path d="M73.3388 12.4902H72.4958L72.4214 12.0215H72.3966C72.0991 12.4162 71.7024 12.5889 71.1817 12.5889C70.7851 12.5889 70.4627 12.4656 70.2148 12.2189C69.9917 11.9968 69.8925 11.7008 69.8925 11.38C69.8925 10.8619 70.1156 10.4919 70.5371 10.2205C70.9586 9.94912 71.5784 9.82576 72.347 9.82576V9.75175C72.347 9.20898 72.0495 8.9376 71.4793 8.9376C71.0578 8.9376 70.7107 9.03629 70.3884 9.25833L70.19 8.64155C70.5867 8.39484 71.0578 8.27148 71.628 8.27148C72.7189 8.27148 73.2644 8.83892 73.2644 9.99846V11.5281C73.2892 11.8981 73.314 12.2435 73.3388 12.4902ZM72.3718 11.0593V10.4179C71.3305 10.3932 70.8346 10.6892 70.8346 11.2567C70.8346 11.4787 70.8842 11.6267 71.0082 11.7501C71.1322 11.8488 71.2809 11.9228 71.4545 11.9228C71.6528 11.9228 71.8512 11.8488 72.0247 11.7254C72.1983 11.6021 72.2974 11.4294 72.347 11.232C72.3718 11.158 72.3718 11.1087 72.3718 11.0593Z" fill="white"/>
<path d="M78.6446 12.4902H77.8264L77.7768 11.8241H77.752C77.4793 12.3422 77.033 12.5889 76.4132 12.5889C75.9173 12.5889 75.4958 12.3915 75.1487 11.9968C74.8264 11.6021 74.6528 11.084 74.6528 10.4672C74.6528 9.80109 74.8264 9.23365 75.1983 8.81425C75.5454 8.41951 75.9917 8.22214 76.4875 8.22214C77.0578 8.22214 77.4545 8.41951 77.6776 8.78958H77.7024V6.39648H78.6446V11.3554C78.6198 11.7748 78.6198 12.1448 78.6446 12.4902ZM77.6776 10.7139V10.0231C77.6776 9.89977 77.6776 9.80109 77.6528 9.72708C77.6033 9.50504 77.4793 9.30767 77.3057 9.15964C77.1322 9.01162 76.9338 8.9376 76.6859 8.9376C76.3388 8.9376 76.0661 9.08563 75.8677 9.35701C75.6694 9.62839 75.5702 9.97379 75.5702 10.4179C75.5702 10.8373 75.6694 11.158 75.8677 11.4294C76.0661 11.7008 76.3388 11.8488 76.6859 11.8488C76.9834 11.8488 77.2313 11.7254 77.4297 11.5034C77.6032 11.2814 77.6776 11.01 77.6776 10.7139Z" fill="white"/>
<path d="M86.628 10.3685C86.628 11.01 86.4545 11.5281 86.0826 11.9475C85.6859 12.3669 85.19 12.5889 84.5454 12.5889C83.9255 12.5889 83.4297 12.3916 83.0826 11.9722C82.7107 11.5774 82.5371 11.0593 82.5371 10.4425C82.5371 9.8011 82.7355 9.25834 83.1074 8.8636C83.4793 8.44419 83.9999 8.24683 84.6198 8.24683C85.2396 8.24683 85.7355 8.44419 86.1074 8.8636C86.4545 9.23367 86.628 9.72709 86.628 10.3685ZM85.6611 10.3932C85.6611 9.99847 85.5867 9.67775 85.4131 9.40636C85.2148 9.06097 84.9421 8.91294 84.5702 8.91294C84.1983 8.91294 83.9007 9.08564 83.7272 9.40636C83.5536 9.67775 83.4793 10.0231 83.4793 10.4179C83.4793 10.8126 83.5536 11.1333 83.7272 11.4047C83.9255 11.7254 84.1983 11.8981 84.5702 11.8981C84.9173 11.8981 85.2148 11.7254 85.4131 11.38C85.5867 11.1087 85.6611 10.7879 85.6611 10.3932Z" fill="white"/>
<path d="M91.6363 12.4902H90.6942V10.0972C90.6942 9.35702 90.4215 8.98696 89.8512 8.98696C89.5785 8.98696 89.3554 9.08564 89.1818 9.28301C89.0082 9.48038 88.9339 9.72709 88.9339 9.99847V12.4656H87.9917V9.50505C87.9917 9.13498 87.9917 8.74025 87.9669 8.32084H88.7851L88.8347 8.96229H88.8595C88.9587 8.76492 89.1322 8.59222 89.3306 8.46887C89.5785 8.32084 89.876 8.24683 90.1735 8.24683C90.5702 8.24683 90.8925 8.37018 91.1405 8.61689C91.4628 8.93762 91.6116 9.38169 91.6116 9.99847V12.4902H91.6363Z" fill="white"/>
<path d="M97.9091 9.01165H96.8925V11.0347C96.8925 11.5528 97.0661 11.7995 97.438 11.7995C97.6115 11.7995 97.7355 11.7748 97.8595 11.7501L97.8843 12.4656C97.7107 12.5396 97.4628 12.5643 97.1653 12.5643C96.7934 12.5643 96.5206 12.4409 96.2975 12.2189C96.0991 11.9969 95.9752 11.6268 95.9752 11.084V8.98698H95.3553V8.29619H95.9752V7.53139L96.8925 7.26001V8.29619H97.9091V9.01165Z" fill="white"/>
<path d="M102.868 12.4902H101.926V10.1218C101.926 9.38168 101.653 8.98695 101.083 8.98695C100.661 8.98695 100.364 9.20898 100.19 9.62839C100.165 9.72708 100.141 9.82576 100.141 9.97379V12.4902H99.1984V6.39648H100.141V8.91293H100.165C100.463 8.44418 100.884 8.22214 101.43 8.22214C101.826 8.22214 102.124 8.3455 102.397 8.59221C102.719 8.91293 102.868 9.38168 102.868 9.99846V12.4902Z" fill="white"/>
<path d="M107.95 10.1959C107.95 10.3686 107.95 10.4919 107.926 10.6153H105.124C105.124 11.0347 105.273 11.3307 105.521 11.5528C105.769 11.7501 106.066 11.8488 106.438 11.8488C106.859 11.8488 107.231 11.7748 107.578 11.6515L107.727 12.2929C107.33 12.4656 106.859 12.5396 106.314 12.5396C105.669 12.5396 105.149 12.3422 104.777 11.9722C104.405 11.6021 104.231 11.084 104.231 10.4426C104.231 9.80113 104.405 9.28304 104.752 8.86363C105.124 8.41955 105.595 8.19751 106.215 8.19751C106.81 8.19751 107.281 8.41955 107.578 8.86363C107.826 9.23369 107.95 9.67777 107.95 10.1959ZM107.058 9.94915C107.058 9.67777 107.008 9.43106 106.884 9.23369C106.711 8.98698 106.488 8.83896 106.14 8.83896C105.843 8.83896 105.595 8.96231 105.397 9.20902C105.248 9.40639 105.149 9.6531 105.124 9.92448H107.058V9.94915Z" fill="white"/>
</svg>
