<svg width="139" height="49" viewBox="0 0 139 49" fill="none" xmlns="http://www.w3.org/2000/svg">
<path d="M118.502 31.47C86.8823 10.059 28.9996 -9.37376 0 25.4773C8.44365 44.0374 84.8442 12.6772 139 32.9828C77.5651 8.42995 35.8127 36.9392 0 25.4773C28.8249 -9.14103 86.4164 9.70995 118.095 30.83C118.211 31.0046 118.328 31.2373 118.502 31.47Z" fill="#F39200"/>
<path d="M118.502 47.4708C86.8823 26.0598 28.9996 6.62697 0 41.478C8.44365 60.0381 84.8442 28.678 139 48.9835C77.5651 24.4307 35.8127 52.9399 0 41.478C28.8249 6.8597 86.4164 25.7107 118.095 46.8308C118.211 47.0053 118.328 47.238 118.502 47.4708Z" fill="#36902C"/>
<path fill-rule="evenodd" clip-rule="evenodd" d="M50.4873 6.10315H50.6038C50.5456 5.98678 50.4873 5.87042 50.4291 5.75405C50.4291 5.87042 50.4291 5.98678 50.4873 6.10315ZM30.1644 11.5141C30.2226 11.4559 30.2808 11.3395 30.3391 11.2813H30.1644V11.5141ZM34.7647 14.7723V14.5395L34.7065 14.5977C34.7065 14.5977 34.7065 14.6559 34.7065 14.7141V14.7723C34.7065 14.7723 34.7065 14.7723 34.7647 14.7723C34.7065 14.7723 34.7647 14.7723 34.7647 14.7723ZM42.8589 14.7723V14.5395L42.8007 14.5977C42.8007 14.5977 42.8007 14.6559 42.8007 14.7141V14.7723C42.8007 14.7723 42.8007 14.7723 42.8589 14.7723C42.8007 14.7723 42.8589 14.7723 42.8589 14.7723ZM57.7081 6.10315H112.213V11.2813H110.408C110.408 11.3977 110.408 11.5141 110.408 11.6304C110.408 12.445 110.292 13.2014 109.942 13.9577C109.826 14.1323 109.709 14.365 109.593 14.5395H110.932V19.6596H106.39C106.215 19.6596 106.099 19.6596 105.924 19.6596C105.75 19.6596 105.575 19.6014 105.4 19.6014C104.993 19.5432 104.585 19.3687 104.236 19.1359C103.944 18.9614 103.653 18.6705 103.42 18.3796C103.187 18.0886 102.954 17.7977 102.78 17.5068C102.605 17.1577 102.372 16.8668 102.197 16.5177L102.139 16.4596H101.848V19.6596H96.2578V17.6814C96.1995 17.7396 96.1413 17.7977 96.0248 17.8559C95.559 18.205 95.0349 18.4959 94.4526 18.6705C93.8702 18.845 93.2879 18.9032 92.7056 18.9032C92.298 18.9032 91.8903 18.845 91.541 18.7868C91.4827 18.7868 91.4245 18.7868 91.3663 18.7287V19.6596H85.8342V18.7287C85.4266 18.7868 85.019 18.845 84.5531 18.845C83.9708 18.845 83.3302 18.7287 82.7479 18.5541C82.2821 18.3796 81.8744 18.205 81.525 17.9141V19.6596H76.9829C76.8082 19.6596 76.6918 19.6596 76.5171 19.6596C76.3424 19.6596 76.1677 19.6014 75.993 19.6014C75.5854 19.5432 75.1777 19.3687 74.8284 19.1359C74.5372 18.9614 74.246 18.6705 74.0131 18.3796C73.7802 18.0886 73.5472 17.7977 73.3725 17.5068C73.1979 17.1577 72.9649 16.8668 72.7902 16.5177L72.732 16.4596H72.6738V19.6596H64.0554H63.9972H63.5896H63.5313H63.4731C63.4149 19.6596 63.3566 19.6596 63.2984 19.6596C63.1819 19.6596 63.0655 19.6596 62.8908 19.6014C62.7743 19.6014 62.5996 19.5432 62.4832 19.5432C62.4249 19.5432 62.3667 19.485 62.3085 19.485C62.0173 19.3687 61.7261 19.2523 61.435 19.0196C61.3185 18.9032 61.1438 18.7868 61.0274 18.6705L60.9691 18.6123L60.9109 18.5541C60.6197 18.2632 60.3868 17.9723 60.2121 17.6814C59.9792 17.3323 59.7462 16.925 59.5133 16.5177C59.5133 16.4596 59.4551 16.4014 59.4551 16.3432H57.6499V11.2813H61.3767H57.7081H56.5435V19.6014H46.5276V17.2159H45.3629V19.6014H44.3147H43.9654H43.2666C43.2083 19.6014 43.2083 19.6014 43.1501 19.6014C43.0919 19.6014 43.0919 19.6014 43.0336 19.6014C42.4513 19.6014 41.869 19.5432 41.2867 19.4268C40.7044 19.3105 40.122 19.0777 39.6562 18.7868C38.9574 18.3796 38.4333 17.7977 38.0257 17.1577H37.2687V19.5432H36.2205H35.8711H35.1723C35.1141 19.5432 35.1141 19.5432 35.0558 19.5432C34.9976 19.5432 34.9976 19.5432 34.9394 19.5432C34.3571 19.5432 33.7747 19.485 33.1924 19.3687C32.6101 19.2523 32.0278 19.0196 31.5619 18.7287C31.5037 18.6705 31.4455 18.6705 31.4455 18.6123L31.7949 19.9505L26.4957 20.9396L25.9716 18.6123C25.564 18.6705 25.0982 18.7287 24.6323 18.7287C23.9918 18.7287 23.4094 18.6705 22.7689 18.5541C22.1866 18.4377 21.6042 18.205 21.1384 17.9141C21.0219 17.8559 20.9637 17.7977 20.9055 17.7396V19.5432H15.3152V11.2813H13.8594V6.10315H15.1405C15.1405 5.40496 15.2569 4.76496 15.4899 4.12496C15.7228 3.42677 16.1304 2.84495 16.7127 2.37949C17.2368 1.91404 17.8192 1.56495 18.5179 1.33222C19.2167 1.09949 19.9155 1.04131 20.6143 1.04131C21.4878 1.04131 22.303 1.15767 23.1183 1.44858C23.9335 1.73949 24.6323 2.14677 25.2729 2.72859C25.6223 3.13586 26.0881 3.60132 26.4375 4.06677C26.7869 4.59041 27.1363 5.11405 27.4274 5.69587L27.4857 5.75405V5.81224C27.5439 5.9286 27.5439 5.98678 27.6021 6.10315H44.9553C44.9553 5.87042 44.8971 5.69587 44.8971 5.46314C44.8971 4.70678 45.0135 3.95041 45.3629 3.31041C45.7123 2.61222 46.1782 2.0304 46.7605 1.62313C47.2264 1.27404 47.7504 1.04131 48.2745 0.866761C48.8568 0.692215 49.4392 0.634033 50.0215 0.634033C50.8367 0.634033 51.5938 0.808579 52.2925 1.15767C52.9913 1.50676 53.6319 2.0304 54.156 2.61222C54.5054 3.07768 54.8548 3.54314 55.0877 4.06677C55.3788 4.59041 55.6118 5.17223 55.8447 5.75405L55.9029 5.81224V5.9286C55.9029 5.98678 55.9029 6.04496 55.9612 6.10315H57.7081Z" fill="white"/>
<path d="M110.583 9.59469H108.195C108.253 9.71105 108.312 9.82742 108.37 9.8856C108.428 9.94378 108.428 10.0601 108.486 10.1183C108.603 10.3511 108.719 10.5838 108.778 10.8747C108.836 11.1074 108.836 11.3402 108.836 11.5729C108.836 12.2129 108.719 12.7365 108.486 13.1438C108.253 13.6093 107.962 13.9583 107.555 14.1911C107.264 14.3656 106.972 14.482 106.681 14.5983C106.39 14.6565 106.041 14.7147 105.691 14.7147C105.633 14.7147 105.633 14.7147 105.633 14.7147H105.575C105.575 14.7147 105.575 14.7147 105.517 14.7147C105.458 14.7147 105.517 14.7147 105.517 14.7147C105.575 14.7729 105.575 14.8893 105.575 14.9474C105.575 15.0056 105.633 15.0638 105.633 15.122C105.691 15.2384 105.749 15.4129 105.749 15.4711C105.808 15.5874 105.866 15.6456 105.866 15.762C105.924 15.8784 106.041 15.9947 106.099 16.0529C106.157 16.1111 106.274 16.1693 106.39 16.1693C106.506 16.1693 106.565 16.1693 106.681 16.1693C106.739 16.1693 106.798 16.1693 106.856 16.1693H109.36V18.0311H106.448C106.332 18.0311 106.215 18.0311 106.099 18.0311C105.982 18.0311 105.924 18.0311 105.808 17.9729C105.575 17.9147 105.4 17.8565 105.225 17.7402C105.051 17.6238 104.876 17.5075 104.76 17.3329C104.585 17.1584 104.468 16.9256 104.294 16.6929C104.119 16.402 103.944 16.1111 103.77 15.762C103.711 15.6456 103.653 15.5293 103.537 15.3547C103.478 15.1802 103.362 15.0056 103.304 14.8311H101.79V12.9692H104.876C105.051 12.9692 105.225 12.9692 105.342 12.9692C105.458 12.9692 105.575 12.9111 105.691 12.9111C105.982 12.7947 106.157 12.6783 106.332 12.4456C106.448 12.2129 106.565 11.922 106.565 11.6311C106.565 11.282 106.507 10.9911 106.448 10.7001C106.332 10.4092 106.215 10.2347 106.041 10.0601C105.982 10.002 105.924 9.94378 105.808 9.94378C105.691 9.8856 105.633 9.82742 105.458 9.82742H101.207V7.96559H110.525V9.59469H110.583ZM101.44 9.59469H100.276V17.9147H98.0046V9.59469H96.5488V7.73286H101.382V9.59469H101.44ZM96.8982 9.59469H89.7939V12.0965C89.9103 11.9802 90.0268 11.8056 90.2597 11.6892C90.4344 11.5147 90.7256 11.3983 91.0168 11.2238C91.3079 11.1074 91.5991 10.9911 91.8902 10.8747C92.1814 10.8165 92.4143 10.7583 92.7055 10.7583C93.8701 10.7583 94.6854 11.0492 95.2677 11.5729C95.85 12.1547 96.1412 12.9693 96.1412 14.0747C96.1412 14.5983 96.0829 15.0638 95.9083 15.4711C95.7336 15.8784 95.5006 16.1693 95.1512 16.4602C94.8601 16.6929 94.5107 16.8674 94.1031 16.9838C93.6954 17.1002 93.2878 17.1584 92.822 17.1584C92.5308 17.1584 92.2396 17.1584 91.9485 17.1002C91.6573 17.042 91.4244 16.9838 91.1915 16.8674C91.1332 16.8674 91.075 16.8093 91.0168 16.8093C90.9585 16.7511 90.9003 16.7511 90.8421 16.6929C90.7838 16.6929 90.7838 16.6347 90.7256 16.6347C90.6674 16.6347 90.6674 16.5765 90.6091 16.5765V15.2965C90.7256 15.3547 90.7838 15.4129 90.8421 15.4129C90.9003 15.4129 91.0168 15.4711 91.075 15.4711C91.2497 15.5293 91.4244 15.5874 91.5991 15.5874C91.7738 15.5874 91.8902 15.6456 92.0067 15.6456C92.589 15.6456 93.0549 15.5293 93.4043 15.2384C93.6954 14.9474 93.8701 14.5402 93.8701 14.0165C93.8701 13.7256 93.8119 13.4929 93.7537 13.2602C93.6954 13.0274 93.579 12.9111 93.4043 12.7365C93.2878 12.6202 93.1131 12.5038 92.8802 12.4456C92.6473 12.3874 92.4143 12.3292 92.0649 12.3292C91.832 12.3292 91.5991 12.3874 91.3661 12.4456C91.1332 12.5038 90.9585 12.6783 90.7256 12.8529C90.4344 13.0856 90.2597 13.3183 90.085 13.4929C89.9103 13.7256 89.8521 13.9002 89.7939 14.0747V17.9147H87.5228V16.1693C87.3481 16.2856 87.1734 16.402 87.057 16.4602C86.9405 16.5184 86.7658 16.5765 86.7076 16.6347C86.3582 16.8093 86.0088 16.9256 85.6594 16.9838C85.31 17.042 84.9606 17.1002 84.6112 17.1002C84.1454 17.1002 83.7377 17.042 83.3884 16.9256C82.9807 16.8093 82.6896 16.5765 82.3402 16.3438C81.9908 16.0529 81.6996 15.7038 81.5249 15.2965C81.3502 14.8893 81.292 14.482 81.292 13.9583C81.292 13.4347 81.3502 12.9693 81.5249 12.6202C81.6996 12.2129 81.9326 11.922 82.282 11.6311C82.5731 11.3983 82.9225 11.2238 83.3301 11.1074C83.7378 10.9911 84.2036 10.9329 84.7277 10.9329C85.0189 10.9329 85.3682 10.9329 85.6594 10.9911C85.9506 11.0492 86.2417 11.1074 86.4747 11.2238C86.5329 11.2238 86.5911 11.282 86.6494 11.282C86.7076 11.3402 86.7658 11.3402 86.8241 11.3983V12.6202C86.7658 12.6202 86.7076 12.562 86.6494 12.562C86.5911 12.562 86.5329 12.5038 86.4747 12.5038C86.3 12.4456 86.1835 12.4456 86.067 12.3874C85.9506 12.3874 85.8341 12.3292 85.6594 12.3292C85.3682 12.3292 85.0771 12.3874 84.7859 12.4456C84.553 12.5038 84.3201 12.6202 84.1454 12.7947C83.9707 12.9693 83.796 13.1438 83.7377 13.3765C83.6213 13.6093 83.6213 13.842 83.6213 14.1329C83.6213 14.4238 83.6795 14.6565 83.7377 14.8893C83.8542 15.0638 83.9707 15.2384 84.1454 15.3547C84.2618 15.4711 84.4365 15.5293 84.6695 15.5874C84.8442 15.6456 85.0771 15.6456 85.3682 15.6456C85.6012 15.6456 85.8341 15.6456 86.0088 15.5874C86.2417 15.5293 86.4747 15.4711 86.6494 15.3547C86.8823 15.2384 87.057 15.1802 87.2317 15.0638C87.4064 14.9474 87.5228 14.8311 87.5811 14.7147V9.65287H80.8844V7.79105H96.9564V9.59469H96.8982ZM81.2338 9.59469H78.8462C78.9045 9.71105 78.9627 9.82742 79.0209 9.8856C79.0792 9.94378 79.0792 10.0601 79.1374 10.1183C79.2539 10.3511 79.3703 10.5838 79.4286 10.8747C79.4868 11.1074 79.4868 11.3402 79.4868 11.5729C79.4868 12.2129 79.3703 12.7365 79.1374 13.1438C78.9045 13.6093 78.6133 13.9583 78.2057 14.1911C77.9145 14.3656 77.6234 14.482 77.3322 14.5983C77.0411 14.6565 76.6917 14.7147 76.3423 14.7147C76.284 14.7147 76.284 14.7147 76.284 14.7147H76.2258C76.2258 14.7147 76.2258 14.7147 76.1676 14.7147C76.1093 14.7147 76.1676 14.7147 76.1676 14.7147C76.2258 14.7729 76.2258 14.8893 76.2258 14.9474C76.2258 15.0056 76.284 15.0638 76.284 15.122C76.3423 15.2384 76.4005 15.4129 76.4005 15.4711C76.4587 15.5874 76.517 15.6456 76.517 15.762C76.5752 15.8784 76.6917 15.9947 76.7499 16.0529C76.8081 16.1111 76.9246 16.1693 77.0411 16.1693C77.1575 16.1693 77.2158 16.1693 77.3322 16.1693C77.3905 16.1693 77.4487 16.1693 77.5069 16.1693H80.0109V18.0311H77.0993C76.9828 18.0311 76.8664 18.0311 76.7499 18.0311C76.6334 18.0311 76.5752 18.0311 76.4587 17.9729C76.2258 17.9147 76.0511 17.8565 75.8764 17.7402C75.7017 17.6238 75.527 17.5075 75.4106 17.3329C75.2359 17.1584 75.1194 16.9256 74.9447 16.6929C74.77 16.402 74.5953 16.1111 74.4206 15.762C74.3624 15.6456 74.3041 15.5293 74.1877 15.3547C74.1295 15.1802 74.013 15.0056 73.9548 14.8311H72.4407V12.9692H75.527C75.7017 12.9692 75.8764 12.9692 75.9929 12.9692C76.1093 12.9692 76.2258 12.9111 76.3423 12.9111C76.6334 12.7947 76.8081 12.6783 76.9828 12.4456C77.0993 12.2129 77.2158 11.922 77.2158 11.6311C77.2158 11.282 77.1575 10.9911 77.0993 10.7001C76.9828 10.4092 76.8664 10.2347 76.6917 10.0601C76.6334 10.002 76.5752 9.94378 76.4587 9.94378C76.3423 9.8856 76.284 9.82742 76.1093 9.82742H71.8584V7.96559H81.1755V9.59469H81.2338ZM72.3243 7.73286V9.59469H71.1596V17.9147H68.8886V9.59469H64.5794C64.6959 9.71105 64.8123 9.82742 64.9288 9.94378C65.0452 10.0601 65.1035 10.1183 65.1617 10.2347C65.3364 10.5256 65.4529 10.8165 65.5693 11.1074C65.6858 11.3983 65.744 11.7474 65.744 12.1547C65.744 12.562 65.6858 12.9692 65.5111 13.2602C65.3946 13.6093 65.1617 13.842 64.9288 14.0747C64.6376 14.3074 64.3465 14.482 64.0553 14.5983C63.7641 14.7147 63.4148 14.7729 63.0654 14.7729C63.0654 14.8311 63.1236 14.8893 63.1236 14.9474C63.1236 15.0056 63.1818 15.0638 63.1818 15.0638C63.2401 15.1802 63.2401 15.2965 63.2983 15.3547C63.3565 15.4711 63.4147 15.5293 63.4147 15.5874C63.473 15.7038 63.5894 15.8202 63.6477 15.8784C63.7059 15.9365 63.8224 16.0529 63.9388 16.0529C63.9971 16.0529 63.9971 16.1111 64.0553 16.1111C64.1135 16.1111 64.1718 16.1111 64.23 16.1111H66.2681V17.9147H63.9971C63.9388 17.9147 63.9388 17.9147 63.9388 17.9147H63.8806H63.8224H63.7641C63.7059 17.9147 63.6477 17.9147 63.5894 17.9147C63.5312 17.9147 63.473 17.9147 63.4147 17.9147C63.3565 17.9147 63.2983 17.9147 63.24 17.9147C63.1818 17.9147 63.1236 17.8565 63.0654 17.8565C62.9489 17.7984 62.8324 17.7402 62.716 17.682C62.5995 17.6238 62.483 17.5075 62.3666 17.3911C62.1919 17.2165 62.0172 16.9838 61.8425 16.7511C61.6678 16.4602 61.4931 16.1693 61.2602 15.8202C61.2019 15.7038 61.1437 15.5293 61.0272 15.3547C60.969 15.1802 60.8525 15.0056 60.7943 14.7729H59.222V12.9692H61.726C61.7843 13.0274 61.8425 13.0274 61.9007 13.0274C61.959 13.0274 61.959 13.0274 62.0172 13.0274C62.2501 13.0274 62.4248 12.9693 62.5995 12.9111C62.7742 12.8529 62.8907 12.7365 63.0071 12.6202C63.1236 12.5038 63.1818 12.3292 63.24 12.1547C63.2983 11.9802 63.2983 11.7474 63.2983 11.5147C63.2983 11.2238 63.2401 10.9911 63.1236 10.7583C63.0071 10.5256 62.7742 10.2929 62.5413 10.1183C62.4248 10.0601 62.3083 10.002 62.1919 9.8856C62.0754 9.82742 61.9007 9.71105 61.726 9.65287H58.698V7.79105H72.3243V7.73286ZM68.9468 14.3074H66.5593V12.4456H68.9468V14.3074ZM56.0193 9.59469H54.8546V17.9147H52.5836V9.59469H51.1278V7.73286H52.6418C52.5836 7.26741 52.4671 6.91831 52.4089 6.56922C52.3507 6.22013 52.2342 5.92922 52.176 5.69649C51.943 4.99831 51.6519 4.47467 51.3025 4.12557C50.9531 3.77648 50.5455 3.60194 50.0796 3.60194C49.8467 3.60194 49.672 3.66012 49.4973 3.77648C49.3226 3.89285 49.2061 4.00921 49.0897 4.24194C48.9732 4.41649 48.915 4.64921 48.8567 4.94012C48.7985 5.17285 48.7985 5.46376 48.7985 5.75467C48.7985 6.04558 48.7985 6.27831 48.8567 6.56922C48.915 6.80195 48.9732 7.03468 49.0897 7.26741C49.0897 7.32559 49.1479 7.44195 49.2061 7.50013C49.2644 7.6165 49.3226 7.67468 49.3808 7.79105H47.0515C46.9933 7.67468 46.9933 7.55832 46.9351 7.50013C46.8768 7.38377 46.8768 7.32559 46.8186 7.20922C46.7604 6.91831 46.7021 6.6274 46.6439 6.33649C46.5857 6.04558 46.5857 5.75467 46.5857 5.46376C46.5857 4.88194 46.7021 4.41649 46.8768 4.00921C47.0515 3.60194 47.4009 3.25284 47.8085 2.90375C48.0997 2.67102 48.4491 2.49648 48.8567 2.38011C49.2644 2.26375 49.672 2.20557 50.1378 2.20557C50.6619 2.20557 51.186 2.32193 51.7101 2.55466C52.176 2.78739 52.6418 3.13648 53.0494 3.66012C53.3406 4.00921 53.5735 4.41649 53.8065 4.82376C54.0394 5.28922 54.2723 5.75467 54.447 6.33649C54.5052 6.56922 54.5635 6.80195 54.6217 7.09286C54.6799 7.32559 54.7382 7.55832 54.7964 7.79105H55.961V9.59469H56.0193ZM51.5936 7.73286V9.59469H50.429V17.9147H48.1579V9.59469H38.4332V7.73286H51.5936ZM48.1579 12.8529C48.0415 12.9111 47.925 12.9111 47.8085 12.9111C47.6921 12.9111 47.5756 12.9111 47.4009 12.9692C47.2845 12.9692 47.1098 13.0274 47.0515 13.0274C46.9351 13.0856 46.8768 13.1438 46.7604 13.202C46.6439 13.3183 46.4692 13.3765 46.411 13.4929C46.2945 13.6093 46.2363 13.7256 46.1198 13.842C46.0616 13.9583 46.0034 14.0747 45.9451 14.1329C45.8869 14.1911 45.8869 14.2493 45.8869 14.3074V15.4711H44.4893V14.2493C44.4893 14.0747 44.4311 13.842 44.3729 13.6674C44.3146 13.4929 44.1982 13.3183 44.0235 13.202C43.8488 13.0856 43.6741 12.9693 43.4994 12.9111C43.3247 12.8529 43.0917 12.7947 42.9171 12.7947C42.6841 12.7947 42.4512 12.8529 42.2183 12.9111C41.9853 13.0274 41.8106 13.1438 41.6359 13.3183C41.4613 13.4929 41.2866 13.6674 41.2283 13.9002C41.1119 14.1329 41.1119 14.3656 41.1119 14.6565C41.1119 15.0056 41.1701 15.2965 41.2866 15.5293C41.403 15.762 41.5777 15.9365 41.8689 16.1111C42.0436 16.2274 42.2765 16.2856 42.4512 16.3438C42.6841 16.402 42.9171 16.402 43.15 16.402C43.2082 16.402 43.2664 16.402 43.3247 16.402C43.3829 16.402 43.4411 16.402 43.4411 16.402C43.4994 16.402 43.5576 16.402 43.5576 16.402C43.6158 16.402 43.6158 16.402 43.6741 16.3438V17.8565H43.6158H43.5576C43.4994 17.8565 43.4994 17.8565 43.4994 17.8565H43.4411H43.3829H43.3247H43.2664H43.2082C43.15 17.8565 43.15 17.8565 43.0918 17.8565C43.0335 17.8565 43.0335 17.8565 42.9753 17.8565C42.4512 17.8565 42.0436 17.7984 41.5777 17.7402C41.1701 17.6238 40.7625 17.5075 40.4131 17.2747C39.889 16.9838 39.5396 16.5765 39.2484 16.0529C39.0155 15.5293 38.8408 14.9474 38.8408 14.2493C38.8408 13.7256 38.9573 13.3183 39.132 12.9111C39.3067 12.5038 39.5978 12.2129 39.9472 11.8638C40.2966 11.5729 40.7042 11.3402 41.1119 11.1656C41.5195 10.9911 41.9271 10.9329 42.4512 10.9329C42.8006 10.9329 43.15 10.9911 43.4411 11.0492C43.7323 11.1074 44.0235 11.2238 44.2564 11.3983C44.4893 11.5147 44.664 11.6892 44.8387 11.8638C45.0134 12.0383 45.1299 12.2129 45.3046 12.4456C45.3628 12.3874 45.421 12.3292 45.4793 12.2711C45.5375 12.2129 45.5957 12.1547 45.654 12.1547C45.8287 12.0383 46.0034 11.922 46.1198 11.8056C46.2363 11.6892 46.3527 11.6311 46.4692 11.5729C46.5857 11.5147 46.7021 11.4565 46.8186 11.4565C46.9351 11.3983 47.0515 11.3983 47.168 11.3983C47.2262 11.3983 47.2845 11.3983 47.3427 11.3402C47.4009 11.3402 47.4592 11.3402 47.5174 11.3402C47.5756 11.3402 47.6339 11.3402 47.6921 11.3402C47.7503 11.3402 47.8085 11.3402 47.8668 11.3402C47.925 11.3402 47.925 11.3402 47.9832 11.3402H48.0415C48.0415 11.3402 48.0415 11.3402 48.0997 11.3402C48.0997 11.3402 48.0997 11.3402 48.1579 11.3402C48.2162 11.3402 48.1579 11.3402 48.1579 11.3402V12.8529ZM39.9472 12.9692C39.889 12.9692 39.889 12.9692 39.8308 12.9692C39.7725 12.9692 39.7725 12.9692 39.7725 12.9692C39.7143 12.9692 39.7143 12.9692 39.7143 12.9692H39.6561C39.5396 12.9692 39.4231 12.9692 39.3649 12.9692C39.2484 12.9692 39.1902 12.9692 39.132 13.0274C39.0737 13.0274 39.0155 13.0856 38.9573 13.0856C38.899 13.0856 38.8408 13.1438 38.7243 13.202C38.6079 13.3183 38.4332 13.3765 38.375 13.4929C38.2585 13.6093 38.2003 13.7256 38.0838 13.842C38.0256 13.9583 37.9673 14.0747 37.9091 14.1329C37.8509 14.2493 37.8509 14.3074 37.8509 14.3074V15.4711H36.4533V14.2493C36.4533 14.0747 36.3951 13.842 36.3368 13.6674C36.2786 13.4929 36.1621 13.3183 35.9874 13.202C35.8127 13.0856 35.638 12.9693 35.4633 12.9111C35.2887 12.8529 35.0557 12.7947 34.881 12.7947C34.6481 12.7947 34.4152 12.8529 34.1822 12.9111C33.9493 13.0274 33.7746 13.1438 33.5999 13.3183C33.4252 13.4929 33.2505 13.6674 33.1923 13.9002C33.0758 14.1329 33.0758 14.3656 33.0758 14.6565C33.0758 15.0056 33.1341 15.2965 33.2505 15.5293C33.367 15.762 33.5417 15.9365 33.8328 16.1111C34.0075 16.2274 34.2405 16.2856 34.4152 16.3438C34.6481 16.402 34.881 16.402 35.114 16.402C35.1722 16.402 35.2304 16.402 35.2887 16.402C35.3469 16.402 35.4051 16.402 35.4051 16.402C35.4633 16.402 35.5216 16.402 35.5216 16.402C35.5798 16.402 35.5798 16.402 35.638 16.3438V17.8565H35.5798H35.5216C35.4633 17.8565 35.4633 17.8565 35.4633 17.8565H35.4051H35.3469H35.2887H35.2304H35.1722C35.114 17.8565 35.114 17.8565 35.0557 17.8565C34.9975 17.8565 34.9975 17.8565 34.9393 17.8565C34.4152 17.8565 34.0075 17.7984 33.5417 17.7402C33.1341 17.6238 32.7264 17.5075 32.377 17.2747C31.853 16.9838 31.5036 16.5765 31.2124 16.0529C30.9795 15.7038 30.863 15.0638 30.863 14.3656C30.863 13.842 30.9795 13.4347 31.1542 13.0274C31.3289 12.6202 31.62 12.3292 31.9694 11.9802C32.3188 11.6892 32.7264 11.4565 33.1341 11.282C33.5417 11.1074 33.9493 11.0492 34.4734 11.0492C34.8228 11.0492 35.1722 11.1074 35.4633 11.1656C35.7545 11.2238 36.0457 11.3402 36.2786 11.5147C36.5115 11.6311 36.6862 11.8056 36.8609 11.9802C37.0356 12.1547 37.1521 12.3292 37.3268 12.562C37.385 12.5038 37.4432 12.4456 37.5015 12.3874C37.5597 12.3292 37.6179 12.2711 37.6762 12.2711C37.8509 12.1547 38.0256 12.0383 38.142 11.922C38.2585 11.8056 38.375 11.7474 38.4914 11.6892C38.6079 11.6311 38.7243 11.5729 38.8408 11.5729C38.9573 11.5147 39.0737 11.5147 39.1902 11.5147C39.3067 11.5147 39.3649 11.4565 39.4231 11.4565C39.4814 11.4565 39.5978 11.4565 39.6561 11.4565C39.7143 11.4565 39.7143 11.4565 39.7143 11.4565H39.7725C39.8308 11.4565 39.8308 11.4565 39.889 11.4565H39.9472C39.9472 11.4565 39.9472 11.4565 40.0054 11.4565C40.0054 11.4565 40.0055 11.4565 40.0637 11.4565V12.9692H39.9472ZM38.6661 9.59469H30.3389V7.73286H38.6079V9.59469H38.6661ZM30.7465 9.59469H28.4755V12.7947H24.5739C24.5157 12.7947 24.4575 12.7947 24.4575 12.7947C24.3993 12.7947 24.3993 12.7947 24.341 12.7947C24.2828 12.7947 24.2828 12.7947 24.2246 12.7947C24.1663 12.7947 24.1663 12.7947 24.1081 12.7947C23.7587 12.8529 23.5258 12.9693 23.3511 13.202C23.1764 13.4347 23.0599 13.7256 23.0599 14.0747C23.0599 14.3656 23.1181 14.5983 23.1764 14.8311C23.2928 15.0056 23.4093 15.1802 23.584 15.2965C23.7005 15.4129 23.8752 15.4711 24.1081 15.5293C24.2828 15.5874 24.5157 15.5874 24.8069 15.5874C25.1563 15.5874 25.5057 15.5293 25.7968 15.4711C26.088 15.4129 26.2627 15.2965 26.4374 15.1802C26.5538 15.122 26.6121 15.0056 26.6703 14.8311C26.7285 14.6565 26.7868 14.482 26.845 14.3074H28.6502C28.6502 14.3656 28.6502 14.482 28.6502 14.5983C28.6502 14.7147 28.7084 14.8893 28.7084 15.0638C28.7667 15.2384 28.7667 15.4129 28.8249 15.6456C28.8831 15.8202 28.8831 16.0529 28.9414 16.2274L29.6401 18.7293L27.7185 19.0784L27.1944 16.3438C27.0779 16.4602 26.9615 16.5184 26.845 16.5765C26.7285 16.6347 26.6703 16.6929 26.5538 16.6929C26.2627 16.8093 25.9715 16.8674 25.6221 16.9256C25.2727 16.9838 24.9233 17.042 24.5739 17.042C23.9916 17.042 23.5258 16.9838 23.0599 16.9256C22.6523 16.8093 22.2447 16.6929 21.9535 16.4602C21.5459 16.1693 21.1965 15.8784 20.9636 15.4129C20.7306 15.0056 20.6724 14.482 20.6724 13.9002C20.6724 13.3183 20.7889 12.8529 21.0218 12.5038C21.2547 12.0965 21.6041 11.8056 22.1282 11.6311C22.3029 11.5729 22.4776 11.5147 22.7105 11.4565C22.9434 11.3983 23.2346 11.3983 23.5258 11.3402H26.3791V9.59469H20.2065V7.73286H30.7465V9.59469ZM26.4956 7.73286H24.6322C24.6322 7.38377 24.5157 7.03468 24.2828 6.68559C24.0499 6.33649 23.7587 5.92922 23.2928 5.52194C22.9434 5.17285 22.5358 4.94012 22.1282 4.76558C21.6623 4.59103 21.1965 4.53285 20.7306 4.53285C20.3812 4.53285 20.0901 4.59103 19.8571 4.64921C19.6242 4.7074 19.3913 4.88194 19.2166 5.05649C19.0419 5.23103 18.9254 5.40558 18.8672 5.63831C18.8672 5.81285 18.809 6.04558 18.809 6.39468C18.809 6.56922 18.809 6.68559 18.809 6.80195C18.809 6.91831 18.809 7.03468 18.8672 7.15104C18.9254 7.26741 18.9254 7.32559 18.9837 7.44195C19.0419 7.55832 19.1001 7.67468 19.1584 7.79105H20.4395V9.65287H19.2748V17.9729H17.0038V9.59469H15.548V7.73286H17.0038C16.9455 7.50013 16.8873 7.26741 16.8291 7.03468C16.7708 6.74377 16.7708 6.51104 16.7708 6.22013C16.7708 5.63831 16.8291 5.11467 17.0038 4.7074C17.1785 4.24194 17.4114 3.89285 17.7608 3.60194C18.1102 3.31103 18.4596 3.0783 18.9254 2.90375C19.3913 2.72921 19.9154 2.67102 20.4977 2.67102C21.1965 2.67102 21.837 2.78739 22.4194 3.02012C23.0017 3.25284 23.584 3.54375 24.1081 4.00921C24.4575 4.30012 24.8069 4.64921 25.098 5.05649C25.3892 5.46376 25.6804 5.92922 25.9715 6.45286C26.088 6.68559 26.1462 6.91831 26.2627 7.15104C26.3209 7.32559 26.4374 7.55832 26.4956 7.73286Z" fill="black"/>
<path d="M101.266 34.6122L99.868 34.1468C99.868 34.2049 99.9262 34.3213 99.9262 34.3795C99.9262 34.4377 99.9262 34.4958 99.9262 34.554C99.9262 34.7286 99.9262 34.9031 99.9262 35.0195C99.9262 35.194 99.8679 35.3104 99.8097 35.4268C99.6932 35.7759 99.5186 36.0668 99.2856 36.2995C99.0527 36.5322 98.8198 36.6486 98.5286 36.7068C98.3539 36.7649 98.121 36.765 97.9463 36.765C97.7716 36.765 97.5387 36.7068 97.364 36.6486H97.3057C97.3057 36.6486 97.3057 36.6486 97.2475 36.6486C97.2475 36.7068 97.2475 36.765 97.2475 36.765C97.2475 36.8231 97.2475 36.8231 97.2475 36.8813C97.2475 36.9977 97.2475 37.0559 97.2475 37.114C97.2475 37.1722 97.2475 37.2304 97.2475 37.2886C97.2475 37.3468 97.3057 37.4631 97.3057 37.5213C97.364 37.5795 97.364 37.6377 97.4222 37.6377C97.4804 37.6377 97.5387 37.6959 97.5969 37.6959C97.6551 37.6959 97.6551 37.6959 97.7134 37.754L99.1109 38.2195L98.7615 39.2668L97.131 38.685C97.0728 38.685 97.0146 38.6268 96.9563 38.6268C96.8981 38.6268 96.8399 38.5686 96.7816 38.5686C96.6652 38.5104 96.5487 38.394 96.4905 38.3359C96.4323 38.2195 96.374 38.1031 96.3158 37.9868C96.2576 37.8704 96.1993 37.6959 96.1993 37.5213C96.1411 37.3468 96.1411 37.114 96.0829 36.8813C96.0829 36.8231 96.0829 36.7068 96.0246 36.5904C96.0246 36.474 96.0246 36.3577 96.0246 36.2413L95.1511 35.9504L95.5005 34.9031L97.2475 35.4849C97.364 35.5431 97.4222 35.5431 97.5387 35.6013C97.5969 35.6013 97.7134 35.6013 97.7716 35.6595C97.9463 35.6595 98.121 35.6013 98.2374 35.5431C98.3539 35.4268 98.4704 35.3104 98.5286 35.1359C98.5868 34.9613 98.6451 34.7286 98.6451 34.554C98.6451 34.3795 98.5868 34.2049 98.5286 34.0886C98.5286 34.0304 98.4704 34.0304 98.4121 33.9722C98.3539 33.914 98.2957 33.8558 98.2374 33.8558L95.8499 32.9831L96.1993 31.9358L101.557 33.7977L101.266 34.6122ZM95.6752 32.8667L94.9765 32.7504L94.103 37.6959L92.7636 37.4631L93.6371 32.5177L92.7636 32.3431L92.9383 31.2377L95.8499 31.7613L95.6752 32.8667ZM92.8219 32.1104L88.5709 31.9358L88.5127 33.4486C88.5709 33.3904 88.6874 33.274 88.8038 33.2158C88.9203 33.1577 89.095 33.0413 89.2697 32.9831C89.4444 32.9249 89.6191 32.8668 89.7938 32.8086C89.9685 32.7504 90.1432 32.7504 90.2597 32.7504C90.9584 32.8086 91.4825 32.9831 91.7737 33.3322C92.1231 33.6813 92.2395 34.2049 92.2395 34.8449C92.2395 35.1359 92.1813 35.4268 92.0648 35.6595C91.9484 35.8922 91.7737 36.0668 91.599 36.2413C91.4243 36.3577 91.1914 36.474 90.9584 36.5322C90.7255 36.5904 90.4343 36.5904 90.2014 36.5904C90.0267 36.5904 89.852 36.5322 89.6773 36.5322C89.5026 36.474 89.3862 36.4159 89.2115 36.3577C89.2115 36.3577 89.1532 36.3577 89.095 36.2995C89.0368 36.2995 89.0368 36.2413 88.9785 36.2413C88.9785 36.2413 88.9203 36.2413 88.9203 36.1831L88.8621 36.1249L88.9203 35.3686C88.9785 35.4268 89.0368 35.4268 89.095 35.4268C89.1532 35.4268 89.2115 35.4849 89.2115 35.4849C89.3279 35.5431 89.4444 35.5431 89.5026 35.6013C89.6191 35.6013 89.6773 35.6013 89.7356 35.6595C90.085 35.6595 90.3761 35.6013 90.5508 35.4268C90.7255 35.2522 90.842 35.0195 90.842 34.7286C90.842 34.554 90.842 34.4377 90.7837 34.2631C90.7255 34.1468 90.6673 34.0304 90.609 33.9722C90.5508 33.914 90.4343 33.8558 90.3179 33.7977C90.2014 33.7395 90.0267 33.7395 89.852 33.7395C89.6773 33.7395 89.5609 33.7395 89.4444 33.7977C89.3279 33.8558 89.1532 33.914 89.0368 34.0304C88.8621 34.1468 88.7456 34.2631 88.6292 34.4377C88.5127 34.554 88.4545 34.6704 88.4545 34.7868L88.338 37.114L86.9986 37.0559L87.0569 36.0086C86.9404 36.0668 86.8822 36.1249 86.7657 36.1831C86.7075 36.2413 86.591 36.2413 86.5328 36.2995C86.2999 36.3577 86.1252 36.4159 85.8922 36.474C85.6593 36.5322 85.4846 36.5322 85.2517 36.5322C84.9605 36.5322 84.7276 36.474 84.4947 36.3577C84.2617 36.2413 84.0871 36.1249 83.9124 35.9504C83.6794 35.7759 83.563 35.5431 83.4465 35.3104C83.33 35.0777 83.33 34.7868 83.33 34.4958C83.33 34.2049 83.3883 33.914 83.5047 33.6813C83.6212 33.4486 83.7959 33.274 83.9706 33.0995C84.1453 32.9831 84.3782 32.8668 84.6111 32.8086C84.8441 32.7504 85.1352 32.7504 85.4264 32.7504C85.6011 32.7504 85.7758 32.8086 85.9505 32.8086C86.1252 32.8668 86.2999 32.9249 86.4163 32.9831C86.4163 32.9831 86.4746 32.9831 86.5328 33.0413C86.591 33.0413 86.591 33.0995 86.6493 33.0995L86.591 33.8558C86.5328 33.8558 86.5328 33.8558 86.4746 33.7977C86.4163 33.7977 86.4163 33.7977 86.3581 33.7395C86.2416 33.6813 86.1834 33.6813 86.1252 33.6813C86.0669 33.6813 85.9505 33.6813 85.8922 33.6231C85.7175 33.6231 85.5429 33.6231 85.3682 33.6813C85.1935 33.7395 85.077 33.7977 84.9605 33.8558C84.8441 33.9722 84.7276 34.0304 84.6694 34.2049C84.6111 34.3213 84.5529 34.4958 84.5529 34.6704C84.5529 34.8449 84.5529 35.0195 84.6111 35.1359C84.6694 35.2522 84.7276 35.3686 84.8441 35.4268C84.9023 35.4849 85.0188 35.5431 85.1352 35.5431C85.2517 35.6013 85.3681 35.6013 85.5428 35.6013C85.6593 35.6013 85.834 35.6013 85.9505 35.6013C86.0669 35.6013 86.2416 35.5431 86.3581 35.4849C86.4746 35.4268 86.591 35.3686 86.7075 35.3104C86.824 35.2522 86.8822 35.194 86.9404 35.0777L87.0569 31.994L82.9806 31.8195L83.0389 30.714L92.7054 31.1795L92.8219 32.1104ZM82.8059 31.7613L81.3501 31.8195C81.4084 31.8777 81.4666 31.9358 81.4666 31.994C81.5248 32.0522 81.5248 32.1104 81.5248 32.1104C81.5831 32.2849 81.6413 32.4013 81.6995 32.5758C81.7578 32.6922 81.7578 32.8668 81.7578 32.9831C81.7578 33.3322 81.6995 33.6813 81.5831 33.9722C81.4666 34.2631 81.2919 34.4377 81.0008 34.6122C80.8261 34.7286 80.6514 34.7868 80.4767 34.8449C80.302 34.9031 80.069 34.9613 79.8943 34.9613H79.8361H79.7779C79.7779 35.0195 79.8361 35.0777 79.8361 35.0777C79.8361 35.1359 79.8361 35.1359 79.8943 35.194C79.9526 35.2522 79.9526 35.3686 80.0108 35.4268C80.069 35.4849 80.069 35.5431 80.1273 35.6013C80.1855 35.6595 80.2437 35.7177 80.302 35.7759C80.3602 35.834 80.4184 35.834 80.4767 35.834C80.5349 35.834 80.5931 35.834 80.6514 35.834C80.7096 35.834 80.7096 35.834 80.7678 35.834L82.2819 35.7759L82.3401 36.8813L80.5931 36.9395C80.5349 36.9395 80.4767 36.9395 80.4184 36.9395C80.3602 36.9395 80.302 36.9395 80.2437 36.9395C80.1273 36.9395 80.0108 36.8813 79.8943 36.8231C79.7779 36.765 79.6614 36.6486 79.6032 36.5904C79.4867 36.474 79.4285 36.3577 79.312 36.1831C79.1955 36.0086 79.0791 35.834 78.9626 35.6595C78.9044 35.6013 78.9044 35.5431 78.8462 35.4268C78.7879 35.3104 78.7297 35.2522 78.6715 35.1359H77.798L77.7397 34.0304L79.6032 33.9722C79.7196 33.9722 79.7779 33.9722 79.8943 33.9722C79.9526 33.9722 80.069 33.9722 80.1273 33.914C80.302 33.8558 80.4184 33.7395 80.4767 33.6231C80.5349 33.5068 80.5931 33.3322 80.5931 33.0995C80.5931 32.8668 80.5349 32.6922 80.4767 32.5177C80.4184 32.3431 80.3602 32.2267 80.2437 32.1104C80.1855 32.1104 80.1855 32.0522 80.1273 32.0522C80.069 32.0522 80.0108 31.994 79.9526 31.994L77.3904 32.0522L77.3321 30.9467L82.9806 30.7722L82.8059 31.7613ZM77.5068 30.714L77.5651 31.8195L76.8663 31.8777L77.2739 36.8813L75.8763 36.9977L75.4687 31.994L72.8483 32.1686C72.9065 32.2267 73.0229 32.2849 73.0812 32.3431C73.1394 32.4013 73.1976 32.4595 73.2559 32.5177C73.3723 32.6922 73.4888 32.8667 73.547 33.0413C73.6053 33.2158 73.6635 33.4486 73.6635 33.6813C73.6635 33.914 73.6635 34.1468 73.6053 34.3795C73.547 34.554 73.4306 34.7286 73.2559 34.9031C73.0812 35.0777 72.9065 35.194 72.7318 35.2522C72.5571 35.3104 72.3242 35.3686 72.1495 35.3686C72.1495 35.4268 72.1495 35.4268 72.2077 35.4849C72.2077 35.5431 72.2077 35.5431 72.2659 35.5431C72.2659 35.6013 72.3242 35.6595 72.3242 35.7177C72.3824 35.7759 72.3824 35.834 72.4406 35.8922C72.4989 35.9504 72.5571 36.0086 72.6153 36.0668C72.6736 36.1249 72.7318 36.1249 72.79 36.1831H72.8483C72.9065 36.1831 72.9065 36.1831 72.9647 36.1831L74.1876 36.0668L74.2458 37.1722L72.8483 37.2886H72.79H72.7318C72.7318 37.2886 72.6736 37.2886 72.6153 37.2886C72.5571 37.2886 72.5571 37.2886 72.4989 37.2886C72.4406 37.2886 72.4406 37.2886 72.3824 37.2886C72.3242 37.2886 72.3242 37.2886 72.2659 37.2886C72.2077 37.2886 72.1495 37.2304 72.033 37.1722C71.9748 37.114 71.9165 37.0559 71.8001 36.9977C71.6836 36.8813 71.5671 36.765 71.4507 36.6486C71.3342 36.474 71.2178 36.2995 71.0431 36.1249C70.9848 36.0668 70.9266 35.9504 70.8684 35.8922C70.8101 35.7759 70.7519 35.6595 70.6937 35.5431L69.762 35.6013L69.7037 34.4958L71.2178 34.3795C71.276 34.3795 71.276 34.3795 71.3342 34.3795H71.3924C71.5089 34.3795 71.6254 34.3213 71.7418 34.3213C71.8583 34.2631 71.9165 34.2049 71.9748 34.1468C72.033 34.0304 72.0912 33.9722 72.0912 33.8558C72.0912 33.7395 72.1495 33.6231 72.0912 33.5068C72.0912 33.3322 72.033 33.2158 71.9165 33.0413C71.8001 32.9249 71.6836 32.8086 71.5089 32.6922C71.4507 32.634 71.3925 32.634 71.276 32.5758C71.2178 32.5177 71.1013 32.5177 70.9848 32.4595L69.1214 32.5758L69.0632 31.4704L77.5068 30.714ZM75.7599 34.8449L74.3041 34.9613L74.2458 33.8558L75.7016 33.7395L75.7599 34.8449ZM63.4729 33.0995L62.7741 33.1577L63.3564 38.1613L62.0171 38.3359L61.4348 33.3322L60.5613 33.4486L60.4448 32.3431L61.3765 32.2267C61.3183 31.9358 61.2018 31.7031 61.1436 31.5286C61.0854 31.354 61.0271 31.1795 60.9107 31.0049C60.736 30.5976 60.503 30.3067 60.2701 30.1322C60.0372 29.9576 59.8043 29.8413 59.5131 29.8995C59.3966 29.8995 59.2802 29.9576 59.1637 30.0158C59.0472 30.074 58.989 30.1904 58.9308 30.3067C58.8725 30.4231 58.8725 30.5976 58.8143 30.714C58.8143 30.8886 58.8143 31.0049 58.8143 31.1795C58.8143 31.354 58.8725 31.5286 58.9308 31.6449C58.989 31.8195 59.0472 31.9358 59.1055 32.0522C59.1055 32.1104 59.1637 32.1686 59.1637 32.2267C59.2219 32.2849 59.2219 32.3431 59.2802 32.4013L57.9408 32.5758C57.9408 32.5177 57.8826 32.4595 57.8244 32.4013C57.7661 32.3431 57.7661 32.2849 57.7661 32.2267C57.7079 32.0522 57.6497 31.8777 57.5914 31.7031C57.5332 31.5286 57.5332 31.354 57.475 31.1795C57.4167 30.8304 57.475 30.5395 57.5332 30.2486C57.6497 29.9576 57.7661 29.7249 57.9991 29.5504C58.1738 29.3758 58.3485 29.2595 58.5814 29.2013C58.8143 29.0849 59.0472 29.0267 59.3384 29.0267C59.6878 28.9685 59.979 29.0267 60.2701 29.1431C60.5613 29.2595 60.8524 29.434 61.1436 29.7249C61.3183 29.8995 61.493 30.1322 61.6677 30.3649C61.8424 30.5976 62.0171 30.8886 62.1918 31.2377C62.25 31.354 62.3082 31.5286 62.3665 31.6449C62.4247 31.7613 62.4829 31.9358 62.5412 32.0522L63.24 31.9358L63.4729 33.0995ZM60.4448 33.4486L56.1939 34.0304L56.3686 35.5431C56.4268 35.4268 56.485 35.3686 56.6015 35.2522C56.718 35.1359 56.8344 35.0195 57.0091 34.9031C57.1838 34.7868 57.3585 34.7286 57.5332 34.6122C57.7079 34.554 57.8826 34.4958 57.9991 34.4958C58.6978 34.3795 59.2219 34.4958 59.6296 34.7868C60.0372 35.0777 60.2701 35.5431 60.3284 36.1831C60.3866 36.474 60.3866 36.765 60.2701 37.0559C60.2119 37.2886 60.0954 37.5213 59.9207 37.6959C59.746 37.8704 59.5713 37.9868 59.3384 38.1031C59.1055 38.2195 58.8725 38.2777 58.5814 38.3359C58.4067 38.3359 58.232 38.394 58.0573 38.3359C57.8826 38.3359 57.7079 38.2777 57.5914 38.2777C57.5914 38.2777 57.5332 38.2777 57.475 38.2777C57.4167 38.2777 57.4167 38.2195 57.3585 38.2195H57.3003C57.3003 38.2195 57.2421 38.2195 57.2421 38.1613L57.1256 37.405C57.1838 37.4631 57.242 37.4631 57.3003 37.4631C57.3585 37.4631 57.4167 37.4631 57.4167 37.4631C57.5332 37.4631 57.6497 37.5213 57.7079 37.5213C57.8244 37.5213 57.8826 37.5213 57.9408 37.5213C58.2902 37.4631 58.5814 37.3468 58.7561 37.1722C58.9308 36.9977 58.989 36.7068 58.9308 36.4159C58.9308 36.2413 58.8725 36.1249 58.8143 36.0086C58.7561 35.8922 58.6396 35.7759 58.5814 35.7177C58.4649 35.6595 58.3485 35.6013 58.232 35.6013C58.1155 35.6013 57.9408 35.6013 57.7661 35.6013C57.5914 35.6013 57.475 35.6595 57.3585 35.7177C57.242 35.7759 57.1256 35.8922 57.0091 36.0086C56.8927 36.1831 56.7762 36.2995 56.6597 36.474C56.6015 36.5904 56.5433 36.765 56.5433 36.8231L56.8344 39.0922L55.4951 39.2668L55.3204 38.1031C55.2039 38.2195 55.1457 38.2777 55.0875 38.3359C55.0292 38.394 54.9128 38.4522 54.8545 38.4522C54.6798 38.5686 54.4469 38.685 54.2722 38.7431C54.0975 38.8013 53.8646 38.8595 53.6899 38.9177C53.3987 38.9759 53.1658 38.9759 52.9329 38.9177C52.6999 38.8595 52.467 38.8013 52.2923 38.6268C52.0594 38.4522 51.8847 38.2777 51.71 38.045C51.5935 37.8122 51.4771 37.5795 51.4771 37.2886C51.4188 36.9977 51.4771 36.7068 51.5353 36.474C51.5935 36.2413 51.71 36.0086 51.9429 35.834C52.1176 35.6595 52.2923 35.5431 52.5252 35.4268C52.7582 35.3104 53.0493 35.2522 53.3405 35.194C53.5152 35.194 53.6899 35.1359 53.8646 35.194C54.0393 35.194 54.214 35.2522 54.3887 35.2522C54.4469 35.2522 54.4469 35.2522 54.5051 35.3104C54.5634 35.3104 54.5634 35.3104 54.6216 35.3686L54.7381 36.0668C54.6798 36.0668 54.6798 36.0668 54.6216 36.0668C54.5634 36.0668 54.5634 36.0668 54.5051 36.0668C54.3887 36.0668 54.3304 36.0668 54.214 36.0668C54.1557 36.0668 54.0393 36.0668 53.981 36.0668C53.8064 36.0668 53.6317 36.1249 53.457 36.1831C53.2823 36.2413 53.1658 36.3577 53.1076 36.4159C52.9911 36.5322 52.9329 36.6486 52.8746 36.765C52.8164 36.8813 52.8164 37.0559 52.8746 37.2304C52.8746 37.405 52.9329 37.5795 52.9911 37.6377C53.0493 37.754 53.1658 37.8122 53.2823 37.8704C53.3987 37.9286 53.457 37.9286 53.6317 37.9286C53.7481 37.9286 53.8646 37.9286 54.0393 37.9286C54.1557 37.9286 54.2722 37.8704 54.4469 37.8122C54.5634 37.754 54.6798 37.6959 54.7963 37.6377C54.9128 37.5795 55.0292 37.4631 55.0875 37.405C55.1457 37.3468 55.2039 37.2304 55.2622 37.1722L54.8545 34.1468L50.8365 34.6704L50.6618 33.5649L60.2701 32.2849L60.4448 33.4486ZM44.8386 34.4377L45.0133 35.5431L44.3145 35.6595L45.0715 40.605L43.7322 40.8377L42.9752 35.8922L40.9953 36.1831C40.9371 36.2413 40.8788 36.3577 40.8788 36.4159C40.8206 36.474 40.8206 36.5322 40.7624 36.5904C40.7041 36.765 40.6459 36.9395 40.5877 37.114C40.5877 37.2886 40.5877 37.4631 40.5877 37.6959C40.6459 37.9286 40.7041 38.1031 40.7624 38.2777C40.8788 38.4522 40.9953 38.5686 41.1118 38.685C41.2865 38.8013 41.4612 38.8595 41.6358 38.9177C41.8105 38.9759 41.9852 38.9759 42.2182 38.9177C42.3929 38.9177 42.5093 38.8595 42.684 38.7431C42.8005 38.685 42.9752 38.5686 43.0916 38.4522C43.1499 38.394 43.1499 38.3941 43.2081 38.2777C43.2663 38.2195 43.2663 38.1613 43.3246 38.045L43.441 38.9759C43.3828 39.0922 43.2663 39.1504 43.2081 39.2086C43.1499 39.2668 43.0334 39.325 42.9752 39.3831C42.7423 39.4995 42.5676 39.6159 42.3346 39.6741C42.1017 39.7322 41.8688 39.8486 41.6358 39.8486C41.3447 39.9068 41.0535 39.9068 40.8206 39.8486C40.5877 39.7904 40.3547 39.6741 40.1218 39.5577C39.8889 39.3831 39.7142 39.2086 39.5395 38.9177C39.423 38.6268 39.3066 38.3359 39.2483 37.9868C39.1901 37.754 39.1901 37.5795 39.2483 37.405C39.2483 37.2304 39.3066 36.9977 39.423 36.8231C39.423 36.765 39.4813 36.6486 39.5395 36.5904C39.5977 36.5322 39.656 36.4159 39.7142 36.3577L38.666 36.474L38.4913 35.3686L44.8386 34.4377ZM38.0255 36.6486L37.3267 36.765L38.0255 41.7686L36.6861 41.885L35.9873 36.8813L35.1139 36.9977L34.9392 35.8922L37.8508 35.4849L38.0255 36.6486ZM34.9974 37.114L34.2986 37.2304L34.9392 42.2341L33.5998 42.4086L33.2504 39.4995L31.4452 39.7322C31.5617 39.7904 31.6199 39.8486 31.6782 39.9068C31.7364 39.965 31.7946 39.965 31.7946 39.965C31.9111 40.0813 31.9693 40.1395 32.0276 40.2559C32.0858 40.3722 32.144 40.4886 32.144 40.6632C32.2022 40.9541 32.144 41.245 32.0276 41.5359C31.9111 41.7686 31.7364 42.0013 31.5035 42.1759C31.3288 42.3504 31.0958 42.4668 30.8629 42.525C30.63 42.6413 30.3388 42.6995 29.9894 42.7577C29.5818 42.8159 29.2906 42.8159 28.9412 42.6995C28.6501 42.6413 28.3589 42.4668 28.126 42.2922C27.9513 42.1759 27.8348 42.0013 27.6601 41.7686C27.5437 41.5359 27.4272 41.3613 27.369 41.0704C27.369 41.0122 27.369 40.9541 27.369 40.8959C27.369 40.8377 27.369 40.7795 27.3108 40.7213C27.3108 40.6632 27.2525 40.605 27.2525 40.5468C27.2525 40.4886 27.2525 40.4304 27.1943 40.3722L28.5336 40.1977C28.5919 40.4304 28.5919 40.6631 28.6501 40.8377C28.7083 41.0122 28.7666 41.1868 28.883 41.3032C28.9995 41.4777 29.1742 41.5941 29.3489 41.6522C29.5236 41.7104 29.6983 41.7104 29.9312 41.7104C30.1059 41.7104 30.2224 41.6522 30.3388 41.5941C30.4553 41.5359 30.5717 41.4777 30.6882 41.3613C30.8047 41.245 30.8629 41.1286 30.8629 41.0122C30.9211 40.8959 30.9211 40.7213 30.9211 40.605C30.9211 40.4886 30.8629 40.3722 30.8047 40.2559C30.7464 40.1395 30.63 40.0813 30.5135 40.0231C30.4553 40.0231 30.3971 40.0231 30.3388 39.965C30.2806 39.965 30.2224 39.965 30.1059 39.9068L29.4653 39.965L29.3489 39.0922L29.9894 39.0341C30.0477 39.0341 30.1059 38.9759 30.1059 38.9759C30.1641 38.9759 30.1641 38.9177 30.2224 38.9177C30.2806 38.8595 30.3388 38.8013 30.3971 38.685C30.4553 38.5686 30.4553 38.5104 30.3971 38.394C30.3971 38.2777 30.3388 38.1613 30.2806 38.1031C30.2224 38.045 30.1641 37.9286 30.0477 37.8704C29.9312 37.8122 29.8147 37.754 29.6983 37.754C29.5818 37.754 29.4653 37.754 29.3489 37.754C29.1742 37.754 28.9995 37.8122 28.8248 37.9286C28.7083 38.045 28.5919 38.1613 28.4754 38.3359C28.4754 38.394 28.4754 38.394 28.4172 38.4522C28.4172 38.5104 28.4172 38.5104 28.3589 38.5686C28.3589 38.6268 28.3589 38.685 28.3007 38.685C28.3007 38.7431 28.3007 38.8013 28.2425 38.8595L27.1943 38.9759C27.1361 38.7431 27.1943 38.4522 27.2525 38.2195C27.3108 37.9868 27.4272 37.754 27.6019 37.5213C27.7766 37.2886 28.0095 37.114 28.3007 36.9395C28.5919 36.8231 28.9413 36.7068 29.3489 36.6486C29.64 36.5904 29.9312 36.5904 30.1641 36.6486C30.3971 36.6486 30.63 36.7068 30.8047 36.8231C31.0376 36.9395 31.2705 37.114 31.387 37.2886C31.5035 37.4631 31.6199 37.754 31.6782 38.045C31.6782 38.1613 31.6782 38.2777 31.6782 38.394C31.6782 38.5104 31.6199 38.6268 31.5035 38.685L31.4452 38.7431C31.387 38.8013 31.3288 38.8013 31.2705 38.8595L33.134 38.6268L32.9593 37.3468L32.4352 37.405L31.8529 36.3577L34.8227 36.0086L34.9974 37.114Z" fill="black"/>
</svg>
