<svg width="120" height="36" viewBox="0 0 120 36" fill="none" xmlns="http://www.w3.org/2000/svg">
<path d="M115.556 35.7632H4.44444C1.95556 35.7632 0 33.8382 0 31.3882V5.13818C0 2.68818 1.95556 0.763184 4.44444 0.763184H115.556C118.044 0.763184 120 2.68818 120 5.13818V31.3882C120 33.8382 118.044 35.7632 115.556 35.7632Z" fill="black"/>
<path d="M115.556 1.46318C117.6 1.46318 119.289 3.12568 119.289 5.13818V31.3882C119.289 33.4007 117.6 35.0632 115.556 35.0632H4.44444C2.4 35.0632 0.711111 33.4007 0.711111 31.3882V5.13818C0.711111 3.12568 2.4 1.46318 4.44444 1.46318H115.556ZM115.556 0.763184H4.44444C1.95556 0.763184 0 2.77568 0 5.13818V31.3882C0 33.8382 1.95556 35.7632 4.44444 35.7632H115.556C118.044 35.7632 120 33.8382 120 31.3882V5.13818C120 2.77568 118.044 0.763184 115.556 0.763184Z" fill="#A6A6A6"/>
<path d="M42.1334 9.68828C42.1334 10.3883 41.9556 11.0008 41.5111 11.4383C40.9778 11.9633 40.3556 12.2258 39.5556 12.2258C38.7556 12.2258 38.1334 11.9633 37.6 11.4383C37.0667 10.9133 36.8 10.3008 36.8 9.51328C36.8 8.72578 37.0667 8.11328 37.6 7.58828C38.1334 7.06328 38.7556 6.80078 39.5556 6.80078C39.9111 6.80078 40.2667 6.88828 40.6222 7.06328C40.9778 7.23828 41.2445 7.41328 41.4222 7.67578L40.9778 8.11328C40.6222 7.67578 40.1778 7.50078 39.5556 7.50078C39.0222 7.50078 38.4889 7.67578 38.1334 8.11328C37.6889 8.46328 37.5111 8.98828 37.5111 9.60078C37.5111 10.2133 37.6889 10.7383 38.1334 11.0883C38.5778 11.4383 39.0222 11.7008 39.5556 11.7008C40.1778 11.7008 40.6222 11.5258 41.0667 11.0883C41.3334 10.8258 41.5111 10.4758 41.5111 10.0383H39.5556V9.33828H42.1334C42.1334 9.42578 42.1334 9.60078 42.1334 9.68828Z" fill="white" stroke="white" stroke-width="0.2" stroke-miterlimit="10"/>
<path d="M46.2222 7.50068H43.8222V9.16318H46.0444V9.77568H43.8222V11.4382H46.2222V12.1382H43.1111V6.88818H46.2222V7.50068Z" fill="white" stroke="white" stroke-width="0.2" stroke-miterlimit="10"/>
<path d="M49.1556 12.1382H48.4445V7.50068H46.9333V6.88818H50.6667V7.50068H49.1556V12.1382Z" fill="white" stroke="white" stroke-width="0.2" stroke-miterlimit="10"/>
<path d="M53.2444 12.1382V6.88818H53.9556V12.1382H53.2444Z" fill="white" stroke="white" stroke-width="0.2" stroke-miterlimit="10"/>
<path d="M56.9778 12.1382H56.2667V7.50068H54.7556V6.88818H58.4V7.50068H56.8889V12.1382H56.9778Z" fill="white" stroke="white" stroke-width="0.2" stroke-miterlimit="10"/>
<path d="M65.4223 11.4383C64.8889 11.9633 64.2667 12.2258 63.4667 12.2258C62.6667 12.2258 62.0445 11.9633 61.5111 11.4383C60.9778 10.9133 60.7112 10.3008 60.7112 9.51328C60.7112 8.72578 60.9778 8.11328 61.5111 7.58828C62.0445 7.06328 62.6667 6.80078 63.4667 6.80078C64.2667 6.80078 64.8889 7.06328 65.4223 7.58828C65.9556 8.11328 66.2223 8.72578 66.2223 9.51328C66.2223 10.3008 65.9556 10.9133 65.4223 11.4383ZM62.0445 11.0008C62.4 11.3508 62.9334 11.6133 63.4667 11.6133C64 11.6133 64.5334 11.4383 64.8889 11.0008C65.2445 10.6508 65.5111 10.1258 65.5111 9.51328C65.5111 8.90078 65.3334 8.37578 64.8889 8.02578C64.5334 7.67578 64 7.41328 63.4667 7.41328C62.9334 7.41328 62.4 7.58828 62.0445 8.02578C61.6889 8.37578 61.4223 8.90078 61.4223 9.51328C61.4223 10.1258 61.6 10.6508 62.0445 11.0008Z" fill="white" stroke="white" stroke-width="0.2" stroke-miterlimit="10"/>
<path d="M67.2 12.1382V6.88818H68L70.5778 11.0007V9.95068V6.88818H71.2889V12.1382H70.5778L67.8222 7.85068V8.90068V12.1382H67.2Z" fill="white" stroke="white" stroke-width="0.2" stroke-miterlimit="10"/>
<path d="M60.5333 19.8381C58.4 19.8381 56.7111 21.4131 56.7111 23.6006C56.7111 25.7006 58.4 27.3631 60.5333 27.3631C62.6667 27.3631 64.3556 25.7881 64.3556 23.6006C64.3556 21.3256 62.6667 19.8381 60.5333 19.8381ZM60.5333 25.7881C59.3778 25.7881 58.4 24.8256 58.4 23.5131C58.4 22.2006 59.3778 21.2381 60.5333 21.2381C61.6889 21.2381 62.6667 22.1131 62.6667 23.5131C62.6667 24.8256 61.6889 25.7881 60.5333 25.7881ZM52.2667 19.8381C50.1333 19.8381 48.4444 21.4131 48.4444 23.6006C48.4444 25.7006 50.1333 27.3631 52.2667 27.3631C54.4 27.3631 56.0889 25.7881 56.0889 23.6006C56.0889 21.3256 54.4 19.8381 52.2667 19.8381ZM52.2667 25.7881C51.1111 25.7881 50.1333 24.8256 50.1333 23.5131C50.1333 22.2006 51.1111 21.2381 52.2667 21.2381C53.4222 21.2381 54.4 22.1131 54.4 23.5131C54.4 24.8256 53.4222 25.7881 52.2667 25.7881ZM42.4 20.9756V22.5506H46.2222C46.1333 23.4256 45.7778 24.1256 45.3333 24.5631C44.8 25.0881 43.9111 25.7006 42.4 25.7006C40 25.7006 38.2222 23.8631 38.2222 21.5006C38.2222 19.1381 40.0889 17.3006 42.4 17.3006C43.6444 17.3006 44.6222 17.8256 45.3333 18.4381L46.4889 17.3006C45.5111 16.4256 44.2667 15.7256 42.4889 15.7256C39.2889 15.7256 36.5333 18.3506 36.5333 21.5006C36.5333 24.6506 39.2889 27.2756 42.4889 27.2756C44.2667 27.2756 45.5111 26.7506 46.5778 25.6131C47.6444 24.5631 48 23.0756 48 21.9381C48 21.5881 48 21.2381 47.9111 20.9756H42.4ZM82.7555 22.2006C82.4 21.3256 81.5111 19.8381 79.5555 19.8381C77.6 19.8381 76 21.3256 76 23.6006C76 25.7006 77.6 27.3631 79.7333 27.3631C81.4222 27.3631 82.4889 26.3131 82.8444 25.7006L81.6 24.8256C81.1556 25.4381 80.6222 25.8756 79.7333 25.8756C78.8444 25.8756 78.3111 25.5256 77.8667 24.7381L82.9333 22.6381L82.7555 22.2006ZM77.6 23.4256C77.6 22.0256 78.7556 21.2381 79.5555 21.2381C80.1778 21.2381 80.8 21.5881 80.9778 22.0256L77.6 23.4256ZM73.4222 27.0131H75.1111V16.0756H73.4222V27.0131ZM70.7555 20.6256C70.3111 20.1881 69.6 19.7506 68.7111 19.7506C66.8444 19.7506 65.0667 21.4131 65.0667 23.5131C65.0667 25.6131 66.7556 27.1881 68.7111 27.1881C69.6 27.1881 70.3111 26.7506 70.6667 26.3131H70.7555V26.8381C70.7555 28.2381 69.9556 29.0256 68.7111 29.0256C67.7333 29.0256 67.0222 28.3256 66.8444 27.7131L65.4222 28.3256C65.8667 29.2881 66.9333 30.5131 68.8 30.5131C70.7556 30.5131 72.3555 29.3756 72.3555 26.6631V20.0131H70.7555V20.6256ZM68.8 25.7881C67.6444 25.7881 66.6667 24.8256 66.6667 23.5131C66.6667 22.2006 67.6444 21.2381 68.8 21.2381C69.9556 21.2381 70.8444 22.2006 70.8444 23.5131C70.8444 24.8256 69.9556 25.7881 68.8 25.7881ZM90.4889 16.0756H86.4889V27.0131H88.1778V22.9006H90.4889C92.3556 22.9006 94.1333 21.5881 94.1333 19.4881C94.1333 17.3881 92.3556 16.0756 90.4889 16.0756ZM90.5778 21.3256H88.1778V17.5631H90.5778C91.8222 17.5631 92.5333 18.6131 92.5333 19.4006C92.4444 20.3631 91.7333 21.3256 90.5778 21.3256ZM100.8 19.7506C99.5555 19.7506 98.3111 20.2756 97.8667 21.4131L99.3778 22.0256C99.7333 21.4131 100.267 21.2381 100.889 21.2381C101.778 21.2381 102.578 21.7631 102.667 22.6381V22.7256C102.4 22.5506 101.689 22.2881 100.978 22.2881C99.3778 22.2881 97.7778 23.1631 97.7778 24.7381C97.7778 26.2256 99.1111 27.1881 100.533 27.1881C101.689 27.1881 102.222 26.6631 102.667 26.1381H102.756V27.0131H104.356V22.8131C104.178 20.8881 102.667 19.7506 100.8 19.7506ZM100.622 25.7881C100.089 25.7881 99.2889 25.5256 99.2889 24.8256C99.2889 23.9506 100.267 23.6881 101.067 23.6881C101.778 23.6881 102.133 23.8631 102.578 24.0381C102.4 25.0881 101.511 25.7881 100.622 25.7881ZM109.956 20.0131L108.089 24.7381H108L106.044 20.0131H104.267L107.2 26.6631L105.511 30.3381H107.2L111.733 20.0131H109.956ZM95.0222 27.0131H96.7111V16.0756H95.0222V27.0131Z" fill="white"/>
<path d="M9.24444 7.32568C8.97777 7.58818 8.88889 8.02568 8.88889 8.55068V27.8882C8.88889 28.4132 9.06666 28.8507 9.33333 29.1132L9.42222 29.2007L20.4444 18.3507V18.2632V18.1757L9.24444 7.32568Z" fill="url(#paint0_linear)"/>
<path d="M24 22.0259L20.3556 18.4384V18.2634V18.1759L24 14.5884L24.0889 14.6759L28.4444 17.1259C29.6889 17.8259 29.6889 18.9634 28.4444 19.6634L24 22.0259Z" fill="url(#paint1_linear)"/>
<path d="M24.0889 21.9382L20.3556 18.2632L9.24445 29.2007C9.68889 29.6382 10.3111 29.6382 11.1111 29.2882L24.0889 21.9382Z" fill="url(#paint2_linear)"/>
<path d="M24.0889 14.5882L11.1111 7.32572C10.3111 6.88822 9.68889 6.97572 9.24445 7.41322L20.3556 18.2632L24.0889 14.5882Z" fill="url(#paint3_linear)"/>
<path opacity="0.2" d="M24 21.8508L11.1111 29.0258C10.4 29.4633 9.77778 29.3758 9.33334 29.0258L9.24445 29.1133L9.33334 29.2008C9.77778 29.5508 10.4 29.6383 11.1111 29.2008L24 21.8508Z" fill="black"/>
<path opacity="0.12" d="M9.24444 29.0258C8.97777 28.7633 8.88889 28.3258 8.88889 27.8008V27.8883C8.88889 28.4133 9.06666 28.8508 9.33333 29.1133V29.0258H9.24444Z" fill="black"/>
<path opacity="0.12" d="M28.4444 19.4007L24 21.8507L24.0889 21.9382L28.4444 19.4882C29.0667 19.1382 29.3333 18.7007 29.3333 18.2632C29.3333 18.7007 28.9778 19.0507 28.4444 19.4007Z" fill="black"/>
<path opacity="0.25" d="M11.1111 7.4133L28.4444 17.1258C28.9778 17.4758 29.3333 17.8258 29.3333 18.2633C29.3333 17.8258 29.0667 17.3883 28.4444 17.0383L11.1111 7.3258C9.86666 6.6258 8.88889 7.1508 8.88889 8.5508V8.6383C8.88889 7.3258 9.86666 6.7133 11.1111 7.4133Z" fill="white"/>
<defs>
<linearGradient id="paint0_linear" x1="19.3774" y1="8.38426" x2="4.69464" y2="23.3001" gradientUnits="userSpaceOnUse">
<stop stop-color="#00A0FF"/>
<stop offset="0.00657445" stop-color="#00A1FF"/>
<stop offset="0.2601" stop-color="#00BEFF"/>
<stop offset="0.5122" stop-color="#00D2FF"/>
<stop offset="0.7604" stop-color="#00DFFF"/>
<stop offset="1" stop-color="#00E3FF"/>
</linearGradient>
<linearGradient id="paint1_linear" x1="30.0749" y1="18.2647" x2="8.56658" y2="18.2647" gradientUnits="userSpaceOnUse">
<stop stop-color="#FFE000"/>
<stop offset="0.4087" stop-color="#FFBD00"/>
<stop offset="0.7754" stop-color="#FFA500"/>
<stop offset="1" stop-color="#FF9C00"/>
</linearGradient>
<linearGradient id="paint2_linear" x1="22.0684" y1="20.2724" x2="2.15731" y2="40.4995" gradientUnits="userSpaceOnUse">
<stop stop-color="#FF3A44"/>
<stop offset="1" stop-color="#C31162"/>
</linearGradient>
<linearGradient id="paint3_linear" x1="6.4864" y1="0.917482" x2="15.3776" y2="9.9497" gradientUnits="userSpaceOnUse">
<stop stop-color="#32A071"/>
<stop offset="0.0685" stop-color="#2DA771"/>
<stop offset="0.4762" stop-color="#15CF74"/>
<stop offset="0.8009" stop-color="#06E775"/>
<stop offset="1" stop-color="#00F076"/>
</linearGradient>
</defs>
</svg>
