<svg width="37" height="42" viewBox="0 0 37 42" fill="none" xmlns="http://www.w3.org/2000/svg">
<path d="M36.2174 13.6366C36.2406 13.6366 36.2406 13.6366 36.2174 13.6366C36.2406 11.9823 36.2406 10.305 36.2406 8.65066C36.2406 7.77755 35.8232 7.22611 34.9653 6.99635C29.331 5.43395 23.9981 3.18225 18.9434 0.241253C18.3869 -0.0804178 17.8073 -0.0804178 17.2508 0.241253C12.2193 3.20522 6.88641 5.45692 1.25207 6.99635C0.417358 7.22611 0 7.77755 0 8.62768C0 11.5227 0 14.4407 0 17.3358C0 19.8402 0.324612 22.2987 1.0434 24.7112C2.62008 30.0877 5.7039 34.4763 10.1325 37.9457C12.0338 39.4392 14.0974 40.6799 16.3929 41.53C17.5522 41.9436 18.7116 41.9896 19.8477 41.53C20.381 41.3233 20.9143 41.1394 21.4012 40.8867C25.482 38.9107 28.8209 36.0616 31.441 32.4314C34.5248 28.1577 36.0783 23.3556 36.2174 18.117C36.2638 16.6235 36.2174 15.13 36.2174 13.6366Z" fill="#1A417A"/>
<path d="M34.8494 13.8894C34.8262 13.8894 34.8262 13.8894 34.803 13.8894C34.803 15.4977 34.8726 17.1061 34.7799 18.6914C34.5712 23.011 33.3191 27.0319 30.9309 30.6852C28.4267 34.4993 25.1342 37.4632 21.0302 39.5311C20.5897 39.7609 20.1259 39.9217 19.6622 40.1285C18.6188 40.5881 17.5986 40.5421 16.5552 40.1285C14.4684 39.3014 12.5903 38.1525 10.8513 36.7739C6.7473 33.5113 3.87217 29.4215 2.38823 24.4126C1.739 22.1839 1.41439 19.9092 1.3912 17.6115C1.3912 14.6246 1.41439 11.6836 1.3912 8.71964C1.3912 8.4669 1.48395 8.37499 1.71582 8.30606C7.4429 6.74366 12.8454 4.44601 17.9928 1.52799C18.1551 1.43608 18.2478 1.45906 18.4101 1.55097C23.488 4.46898 28.8209 6.74366 34.4784 8.30606C34.7335 8.37499 34.8494 8.48987 34.8494 8.76559C34.8262 10.4659 34.8494 12.1891 34.8494 13.8894Z" fill="url(#paint0_linear)"/>
<path d="M14.9322 19.2661C14.3293 19.2661 13.8192 19.7716 13.796 20.369C13.7728 20.9664 14.2829 21.4948 14.909 21.4948C15.535 21.4948 16.0451 21.0123 16.0451 20.392C16.0683 19.7946 15.535 19.2661 14.9322 19.2661Z" fill="white"/>
<path d="M19.4304 21.9082C18.642 21.9312 18.016 22.5515 17.9928 23.3098C17.9928 24.091 18.642 24.7573 19.4304 24.7573C20.2419 24.7573 20.8911 24.114 20.8911 23.3327C20.8911 22.5515 20.2187 21.9082 19.4304 21.9082Z" fill="white"/>
<path d="M19.6854 15.9116C18.642 15.9345 17.7841 16.7847 17.7609 17.8186C17.7378 18.8755 18.6188 19.7486 19.7086 19.7486C20.7752 19.7486 21.6795 18.8755 21.6795 17.8186C21.6563 16.7847 20.7288 15.8886 19.6854 15.9116Z" fill="white"/>
<path d="M28.9832 16.7846C28.8905 16.3021 28.4268 16.0494 27.9399 16.1643C27.4993 16.2562 27.2211 16.6927 27.3138 17.1752C27.3602 17.428 27.4066 17.6807 27.4529 17.9794C26.9892 18.0483 26.5487 18.1402 26.1081 18.2092C25.6908 16.8995 25.0647 15.7277 24.1141 14.7397C24.4155 14.3721 24.7169 14.0504 24.9952 13.7058C25.2502 13.9126 25.4821 14.1193 25.7371 14.2802C26.2009 14.6018 26.8037 14.3951 27.0124 13.8896C27.1747 13.522 27.0588 13.1773 26.6414 12.8327C25.8299 12.1663 25.0183 11.477 24.2068 10.8107C23.7663 10.4431 23.233 10.4661 22.9084 10.8337C22.5838 11.2473 22.6533 11.7068 23.117 12.0974C23.3025 12.2582 23.488 12.3961 23.6735 12.5799C23.3721 12.9246 23.0939 13.2692 22.8156 13.5909C21.6795 12.9016 20.5202 12.4421 19.2449 12.3042C19.1521 12.3042 19.013 12.1893 19.013 12.1204C18.9898 11.7298 19.013 11.3392 19.013 10.9026C19.3376 10.9026 19.6159 10.9256 19.9173 10.9026C20.4506 10.8567 20.7752 10.4891 20.752 10.0295C20.7288 9.56999 20.3578 9.22534 19.8709 9.22534C18.7348 9.22534 17.6218 9.22534 16.4857 9.22534C16.3002 9.22534 16.1147 9.29427 15.9524 9.38618C15.651 9.54701 15.5119 9.96059 15.6046 10.2593C15.6973 10.6039 15.9524 10.8567 16.3234 10.8797C16.648 10.9026 16.9726 10.9256 17.3436 10.9256C17.3436 11.2932 17.3204 11.6379 17.3436 11.9825C17.3436 12.2123 17.274 12.3272 17.0422 12.3272C16.8103 12.3501 16.5784 12.3961 16.3466 12.4421C15.3264 12.6488 14.3989 13.0394 13.5178 13.6139C13.2164 13.2692 12.9381 12.9475 12.6599 12.6029C12.915 12.3731 13.17 12.1893 13.3787 11.9595C13.7265 11.5919 13.7033 11.1554 13.3787 10.8107C13.0773 10.512 12.5672 10.4661 12.1962 10.7648C11.3151 11.477 10.4572 12.1893 9.59928 12.9246C9.15874 13.2922 9.13555 13.7977 9.48335 14.1653C9.80796 14.5099 10.3181 14.5329 10.7354 14.1883C10.9209 14.0274 11.1296 13.8666 11.3383 13.6828C11.6397 14.0504 11.9179 14.3721 12.2194 14.7167C11.2455 15.7047 10.6195 16.8765 10.2021 18.1862C9.7384 18.0943 9.29786 18.0253 8.85731 17.9334C8.90369 17.6577 8.92687 17.428 8.97325 17.1982C9.06599 16.6468 8.81094 16.2102 8.32402 16.1183C7.79073 16.0264 7.37337 16.3251 7.28063 16.9225C7.21107 17.2671 7.16469 17.6347 7.09513 17.9794C6.95601 18.7376 6.8169 19.4958 6.72415 20.2541C6.65459 20.7136 7.00239 21.0812 7.46612 21.1502C7.88348 21.2191 8.32402 20.9204 8.41677 20.4609C8.46314 20.1851 8.5327 19.9324 8.57907 19.6107C9.0428 19.7026 9.48335 19.7716 9.83115 19.8405C9.90071 20.5757 9.90071 21.2421 10.0166 21.8854C10.1326 22.5287 10.3644 23.1721 10.5499 23.8154C10.2485 23.9992 9.94708 24.1601 9.62247 24.3439C9.55291 24.3669 9.50654 24.4128 9.41379 24.4358C9.27467 24.206 9.15874 24.0222 9.0428 23.8154C8.76457 23.3329 8.27765 23.1721 7.8371 23.4019C7.37337 23.6546 7.25744 24.1601 7.55886 24.6656C8.09216 25.6076 8.64863 26.5496 9.20511 27.4917C9.48335 27.9512 9.97027 28.112 10.3876 27.8593C10.8282 27.6066 10.9673 27.1241 10.6891 26.6415C10.5731 26.4118 10.434 26.182 10.2949 25.9522C10.7122 25.7225 11.0832 25.4927 11.4774 25.2859C12.3353 26.3888 13.3323 27.2389 14.5844 27.8363C14.4221 28.2729 14.283 28.6865 14.1207 29.1C13.7497 28.9851 13.4483 28.8703 13.1236 28.8013C12.6831 28.7324 12.3121 28.9851 12.1962 29.3987C12.0802 29.8123 12.2426 30.2259 12.6599 30.3867C13.7497 30.8003 14.8626 31.1909 15.9756 31.5815C16.4625 31.7423 16.9262 31.4896 17.0654 31.053C17.2045 30.5935 16.9958 30.1799 16.5089 29.9731C16.2538 29.8812 16.022 29.7893 15.7437 29.6744C15.8597 29.3298 15.9988 29.0311 16.0915 28.7094C16.1611 28.4797 16.277 28.4107 16.5089 28.4567C17.39 28.6635 18.2942 28.7094 19.2217 28.5945C19.5695 28.5486 19.8941 28.4797 20.2419 28.4337C20.4042 28.8703 20.5433 29.2609 20.7056 29.6744C20.4274 29.7893 20.1724 29.8583 19.9405 29.9731C19.755 30.088 19.5463 30.2259 19.4304 30.4097C19.2449 30.7084 19.2913 31.0301 19.5231 31.3058C19.8014 31.6504 20.1724 31.6734 20.5665 31.5355C21.5867 31.1679 22.6069 30.8003 23.604 30.4327C24.1604 30.2259 24.3923 29.7893 24.2068 29.2838C24.0445 28.8243 23.5576 28.6405 23.0243 28.8243C22.7924 28.8932 22.5606 28.9851 22.3055 29.0771C22.1432 28.6405 22.0041 28.2269 21.8418 27.7904C23.0939 27.193 24.1141 26.3199 24.9488 25.24C25.343 25.4697 25.7371 25.6995 26.1081 25.9063C25.9458 26.205 25.7835 26.4577 25.6444 26.7105C25.4357 27.147 25.598 27.5836 26.0154 27.8133C26.4095 28.0431 26.9196 27.9282 27.1515 27.5376C27.7544 26.5267 28.334 25.5387 28.9137 24.5047C29.1456 24.0682 28.9832 23.6086 28.5659 23.3789C28.1717 23.1491 27.6616 23.287 27.4066 23.7006C27.2674 23.9303 27.1283 24.1831 26.966 24.4358C26.5718 24.206 26.1777 23.9992 25.7835 23.7695C26.3168 22.5058 26.6182 21.2191 26.4791 19.8175C26.9428 19.7486 27.3602 19.6567 27.8239 19.5878C27.8703 19.8635 27.9399 20.1162 27.9862 20.369C28.079 20.8744 28.4731 21.1961 28.9369 21.1272C29.4238 21.0583 29.7484 20.6676 29.6557 20.1392C29.4006 19.0363 29.1919 17.9105 28.9832 16.7846ZM18.1319 27.0092C14.4916 27.0092 11.5006 24.0452 11.5238 20.4379C11.547 16.8076 14.5148 13.8896 18.1551 13.9126C21.7954 13.9355 24.7169 16.8535 24.7169 20.4609C24.7169 24.0682 21.749 27.0092 18.1319 27.0092Z" fill="white"/>
<defs>
<linearGradient id="paint0_linear" x1="18.1203" y1="1.46948" x2="18.1203" y2="40.4562" gradientUnits="userSpaceOnUse">
<stop stop-color="#397BDF"/>
<stop offset="1" stop-color="#204681"/>
</linearGradient>
</defs>
</svg>
